<?xml version="1.0" encoding="UTF-8" standalone="no"?>
<!-- Created with Inkscape (http://www.inkscape.org/) -->

<svg
   width="292.98175mm"
   height="48.9049mm"
   viewBox="0 0 1107.3327 184.83742"
   version="1.1"
   id="svg1"
   sodipodi:docname="Famtivity-logo.svg"
   xml:space="preserve"
   inkscape:export-filename="Famlogo5.svg"
   inkscape:export-xdpi="96"
   inkscape:export-ydpi="96"
   inkscape:version="1.3.2 (091e20e, 2023-11-25, custom)"
   xmlns:inkscape="http://www.inkscape.org/namespaces/inkscape"
   xmlns:sodipodi="http://sodipodi.sourceforge.net/DTD/sodipodi-0.dtd"
   xmlns="http://www.w3.org/2000/svg"
   xmlns:svg="http://www.w3.org/2000/svg"><sodipodi:namedview
     id="namedview1"
     pagecolor="#ffffff"
     bordercolor="#000000"
     borderopacity="0.25"
     inkscape:showpageshadow="2"
     inkscape:pageopacity="0.0"
     inkscape:pagecheckerboard="0"
     inkscape:deskcolor="#d1d1d1"
     inkscape:document-units="mm"
     inkscape:zoom="0.72430042"
     inkscape:cx="594.36663"
     inkscape:cy="424.54759"
     inkscape:window-width="1920"
     inkscape:window-height="1009"
     inkscape:window-x="-8"
     inkscape:window-y="-8"
     inkscape:window-maximized="1"
     inkscape:current-layer="layer1" /><defs
     id="defs1"><linearGradient
       id="swatch2"
       inkscape:swatch="solid"><stop
         style="stop-color:#000000;stop-opacity:1;"
         offset="0"
         id="stop2" /></linearGradient><clipPath
       clipPathUnits="userSpaceOnUse"
       id="clipPath41"><path
         id="path42"
         style="fill:#ff0000;fill-opacity:1;fill-rule:nonzero;stroke:none"
         d="m 802.05275,174.31641 v 2.85156 c 0.002,-0.002 0.004,-0.002 0.006,-0.004 0.22474,-0.9786 0.91388,-1.98991 2.13672,-2.84766 z m 17.58203,4.07227 c -0.5073,0.0205 -1.01368,0.0927 -1.51757,0.14062 -0.57285,0.0745 -1.14954,0.12448 -1.71094,0.26563 -1.04527,0.25667 -2.09567,0.4965 -3.14844,0.7207 -0.96661,0.20418 -1.93788,0.3841 -2.89453,0.63281 -0.4412,0.1174 -0.88768,0.22562 -1.31641,0.38281 -1.65459,0.60664 -3.07416,0.70351 -4.20117,0.46485 -0.76695,1.95335 -0.95633,3.4377 1.95313,2.33203 0.002,-8.5e-4 0.004,-9.5e-4 0.006,-0.002 0.44803,-0.27865 0.79236,-0.66884 1.07031,-1.11524 0.0526,-0.0846 0.0775,-0.18272 0.13281,-0.26562 0.0427,-0.0641 -0.06,0.14039 -0.0859,0.21289 0.0393,-0.0845 0.0128,-0.0216 -0.041,0.12304 0.003,-0.014 -0.009,0.0262 -0.0781,0.28516 -0.0588,0.21845 -0.0962,0.43971 -0.14843,0.66016 -0.0189,0.0588 -0.0175,0.11908 -0.0215,0.17968 -0.007,0.29893 -0.0812,0.59088 -0.11328,0.88672 -0.0143,0.28435 -0.0785,0.56091 -0.11914,0.8418 -0.0391,0.40665 -0.13659,0.80536 -0.24805,1.19727 -0.015,0.0422 -0.0212,0.0764 -0.006,0.0586 -0.0241,0.13283 -0.0482,0.26561 -0.0723,0.39844 -0.053,0.26343 -0.1256,0.52103 -0.1836,0.7832 0.0107,-0.0291 0.0146,-0.0275 0.01,0.01 -0.0163,0.12682 -0.0338,0.25414 -0.0508,0.38086 -0.0507,0.28089 -0.0893,0.56384 -0.13477,0.8457 -0.0245,0.0994 -0.0424,0.19996 -0.0605,0.30078 -0.65383,3.64661 -2.74213,5.2643 -4.60157,5.12695 v 7.79492 h 23.44336 v -8.86914 c -2.12363,0.46755 -4.52483,-1.405 -4.58593,-5.66601 -10e-4,-0.0381 -10e-4,-0.0771 -0.002,-0.11524 -0.004,-0.19455 -0.01,-0.38972 -0.0215,-0.58398 -0.003,-0.12425 -0.007,-0.078 -0.0547,-0.31445 -0.0408,-0.23098 -0.0704,-0.46299 -0.12305,-0.69141 -0.053,-0.224 -0.0307,-0.20334 -0.12695,-0.44922 -0.0988,-0.28557 -0.2172,-0.58663 -0.2793,-0.88476 -0.13548,-0.33872 -0.3112,-0.66304 -0.42187,-1.01172 -0.0266,-0.0658 -0.0538,-0.13137 -0.0801,-0.19727 -0.0129,-0.0321 -0.068,-0.0801 -0.0371,-0.0957 0.003,-0.002 0.007,0.003 0.01,0.004 -0.0659,-0.10817 -0.14552,-0.21608 -0.18555,-0.33007 -0.24478,-0.37003 -0.53508,-0.70154 -0.82422,-1.03711 -0.17401,-0.18014 -0.34945,-0.36101 -0.53516,-0.5293 -0.12349,-0.1119 -0.26963,-0.1984 -0.3789,-0.32422 -0.0368,-0.0424 0.0909,0.0632 0.13672,0.0957 2.90162,2.05947 2.79283,-0.12214 2.42968,-2.61523 -0.0914,-0.009 -0.18231,-0.0224 -0.27343,-0.0273 -0.16914,-0.007 -0.33872,-0.007 -0.50782,0 z m 0.66797,6.06836 c -0.008,-0.0403 0.0241,0.0922 0.0469,0.11523 -0.0141,-0.0389 -0.0315,-0.0768 -0.0469,-0.11523 z" /></clipPath><rect
       x="19.525234"
       y="56.62318"
       width="1123.6772"
       height="268.47195"
       id="rect108" /><rect
       x="19.525234"
       y="56.62318"
       width="1123.6772"
       height="268.47195"
       id="rect109" /></defs><g
     inkscape:label="Layer 1"
     inkscape:groupmode="layer"
     id="layer1"
     style="display:inline"
     transform="translate(-15.187069,-169.81904)"><g
       id="text25"
       style="font-size:213.333px;white-space:pre;stroke:#000000;stroke-width:2.89134"
       transform="translate(-15.477758,91.673649)"
       aria-label="FaMTiViTY"><path
         style="font-family:'Ask Why';-inkscape-font-specification:'Ask Why';text-align:center;text-anchor:middle"
         d="m 67.34424,254.61953 q -7.708321,0 -8.020821,-8.33332 -1.354164,-43.5416 -1.354164,-87.0832 0,-42.81243 1.249998,-57.49991 0.416666,-5.208322 5.520824,-6.14582 1.979164,-0.416666 4.270827,-0.520833 25.31246,-1.354164 50.520756,-1.354164 15.10414,0 30.20828,0.520832 4.37499,0.208333 6.45832,1.145832 2.1875,0.833332 2.8125,2.499996 0.625,1.666664 0.625,4.270827 0,6.35416 -1.25,15.52081 -1.25,9.06248 -3.43749,15.52081 -0.9375,2.81249 -2.39583,3.85416 -1.35417,1.04166 -3.95833,1.04166 -7.39582,0 -42.2916,-2.91666 -0.72916,21.24997 -1.25,42.39577 l 28.12496,-0.3125 q 3.22916,0 6.35415,1.04166 3.125,1.04167 3.125,7.70832 0,8.22916 -1.25,23.54163 -0.3125,3.64583 -2.08333,5.20833 -1.66666,1.56249 -5.31249,1.77083 l -13.74998,0.93749 -15.83331,0.41667 v 1.97916 q 0,11.66665 0.20834,21.7708 0.10416,2.70833 0.10416,6.14583 0,3.43749 -6.354153,4.47916 -14.687476,2.39583 -31.041617,2.39583 z"
         id="path118" /><path
         style="font-family:'Ask Why';-inkscape-font-specification:'Ask Why';text-align:center;text-anchor:middle"
         d="m 207.34401,206.4946 q 0,7.49999 6.56249,7.49999 3.33333,0 8.85416,-3.85416 5.62499,-3.95833 10.20831,-11.04165 3.33333,-5.10416 6.97916,-16.87497 -14.27081,0 -23.43746,6.45832 -9.16666,6.45832 -9.16666,17.81247 z m -41.87493,1.04167 q 0,-26.77079 17.70831,-42.81243 17.7083,-16.14581 57.08324,-16.14581 0,-17.70831 -22.60413,-17.70831 -6.66666,0 -17.39581,3.125 -10.72915,3.12499 -14.58331,3.12499 -4.06249,0 -6.24999,-2.39583 -2.18749,-2.39583 -4.58332,-9.58331 -3.75,-11.45832 -3.75,-17.29164 0,-4.58333 3.22916,-6.14583 4.16666,-1.97916 14.47915,-4.479156 14.99997,-3.541661 36.6666,-3.541661 39.27078,0 53.33325,21.041637 7.70832,11.56248 7.70832,28.22912 0,8.85415 -0.83333,26.24996 -1.45833,28.22912 -1.45833,38.64577 0,9.99998 1.14583,21.56246 1.14583,11.45832 1.14583,15.41664 0,5.10416 -10.83331,7.18749 -13.02081,2.60417 -28.54162,2.60417 -5.83333,0 -6.87499,-3.95833 -1.5625,-6.45832 -2.1875,-13.85415 -11.66665,13.64582 -35.10411,13.64582 -4.58333,0 -11.04165,-1.97917 -6.35415,-1.97916 -12.39581,-6.97915 -14.06248,-11.87498 -14.06248,-33.95828 z"
         id="path119" /><path
         style="font-family:'Ask Why';-inkscape-font-specification:'Ask Why';text-align:center;text-anchor:middle"
         d="m 331.61464,253.99453 q -30.10412,0 -30.10412,-8.85416 0,-26.45829 10.72915,-104.99983 3.22916,-23.64579 4.58333,-31.97911 1.97916,-11.562485 6.77082,-12.499984 10.83332,-1.979163 31.24995,-1.979163 7.91665,0 11.14582,2.812495 3.33332,2.812496 5.62499,10.312482 9.99998,32.18745 12.91664,40.62494 16.24998,-47.812427 20.62497,-50.10409 2.60416,-1.458331 9.16665,-1.458331 11.04165,0 22.91663,1.979164 9.47915,1.666664 12.39582,4.062497 6.66665,5.52082 12.39581,61.8749 4.58333,44.79159 4.58333,76.14571 0,1.875 -0.20834,4.58332 -0.10416,2.70833 -3.12499,5.3125 -2.29167,1.97916 -11.87498,3.02082 -4.79166,0.52084 -7.49999,0.52084 -6.35416,0 -12.81248,-0.9375 -6.87499,-0.9375 -7.70832,-7.91666 -0.41667,-2.91666 -0.52083,-6.56248 -0.9375,-20.8333 -6.04166,-85.41653 -5.10416,18.12497 -9.27082,31.24995 -4.37499,13.85414 -6.35416,22.08329 -1.97916,8.12499 -3.02083,12.29165 -0.83333,3.64583 -3.54166,4.27083 -2.60416,0.625 -6.04165,0.625 -17.81247,0 -20.41664,-1.66667 -1.77083,-1.04166 -2.70833,-5.31249 -0.72916,-3.12499 -13.74997,-54.79158 -6.87499,73.54155 -6.87499,83.54153 0,5 -3.02083,7.08333 -2.91666,2.08333 -10.20832,2.08333 z"
         id="path120" /><path
         style="font-family:'Ask Why';-inkscape-font-specification:'Ask Why';text-align:center;text-anchor:middle"
         d="m 527.65601,254.61953 q -7.39582,0 -11.45831,-1.45834 -3.95833,-1.45833 -3.95833,-6.14582 0,-28.43745 -0.41666,-58.64574 -0.41667,-26.77079 -0.52084,-52.29158 -10.72915,0.10416 -22.08329,0.10416 -3.54166,0 -5.83333,-0.72916 -4.79166,-1.66666 -5.62499,-10.62498 -0.83333,-8.95832 -0.83333,-16.24998 0,-8.43748 2.60416,-10.833314 4.37499,-4.062493 92.81235,-4.062493 6.04166,0 9.37499,1.145831 3.43749,1.041665 4.68749,4.583326 1.35417,4.06249 1.35417,17.70831 0,5.10415 -0.3125,7.39582 -0.72917,5.52082 -3.85416,7.29165 -3.02083,1.77083 -9.27082,2.1875 -7.81249,0.52083 -16.24998,0.83333 0.10417,22.29163 0.625,48.85409 0.52083,25.93746 0.52083,43.74993 0,8.95832 -0.10416,15.83331 -0.10417,5.20832 -2.60416,7.70832 -2.39583,2.39583 -9.16666,3.02083 -6.66665,0.625 -19.68747,0.625 z"
         id="path121" /><path
         style="font-family:'Ask Why';-inkscape-font-specification:'Ask Why';text-align:center;text-anchor:middle"
         d="m 619.21833,254.61953 q -4.16666,0 -10.93748,-0.72917 -6.66666,-0.625 -8.85416,-5.10416 -1.77083,-3.43749 -1.77083,-12.29165 0.625,-42.91659 3.85416,-86.66652 0.41667,-5.41666 5.31249,-7.08333 4.89583,-1.66666 17.60414,-1.66666 10.93749,0 15.62498,1.14583 4.68749,1.04167 5.72916,4.0625 1.87499,5.20832 1.87499,83.64569 0,10.41665 -0.52083,14.68748 -0.52083,4.16666 -3.02083,5.62499 -3.95832,2.39583 -13.85414,3.64583 -5.62499,0.72917 -11.04165,0.72917 z m 5.10416,-121.97898 q -14.16665,0 -18.33331,-1.97916 -4.06249,-1.97916 -4.16666,-8.22915 l -0.10416,-9.06249 q 0,-5.52082 0.20833,-10.93748 0.20833,-4.374994 3.54166,-6.354158 4.06249,-2.395829 19.2708,-2.395829 14.16665,0 18.22914,1.979163 4.16666,1.979164 4.27083,8.124984 l 0.10416,9.16666 q 0,5.52082 -0.20833,10.93748 -0.20833,5.41666 -5.20832,7.08332 -4.89583,1.66666 -17.60414,1.66666 z"
         id="path122" /><path
         style="font-family:'Ask Why';-inkscape-font-specification:'Ask Why';text-align:center;text-anchor:middle"
         d="m 719.63487,254.61953 h -6.66666 q -5.93749,0 -11.24998,-1.45834 -5.31249,-1.35416 -6.87499,-6.35415 -11.66665,-37.49994 -27.39579,-111.04149 -4.16666,-19.68747 -5.41666,-24.16663 -1.04166,-3.85416 -1.04166,-6.66666 0,-1.45833 0.52083,-3.85416 0.625,-2.499992 8.33332,-3.74999 21.87496,-3.645827 30.20828,-3.645827 7.29166,0 9.58332,13.854147 l 5.20833,30.72911 q 6.97915,41.77077 14.89581,79.47904 3.74999,-22.39579 6.87498,-43.22909 9.79166,-64.16657 13.02082,-73.33322 2.29166,-6.354156 8.95832,-6.354156 2.70833,0 11.56248,1.354165 18.9583,3.020828 23.22913,5.104161 4.27082,2.08333 4.27082,6.77082 0,4.99999 -2.18749,11.97915 -10.31249,32.91661 -18.54164,65.52073 -13.43748,53.54158 -17.08331,61.66656 -3.02082,6.77083 -12.18748,7.08333 -7.39582,0.3125 -28.02078,0.3125 z"
         id="path123" /><path
         style="font-family:'Ask Why';-inkscape-font-specification:'Ask Why';text-align:center;text-anchor:middle"
         d="m 827.75971,254.61953 q -4.16666,0 -10.93748,-0.72917 -6.66666,-0.625 -8.85415,-5.10416 -1.77084,-3.43749 -1.77084,-12.29165 0.625,-42.91659 3.85417,-86.66652 0.41666,-5.41666 5.31249,-7.08333 4.89582,-1.66666 17.60414,-1.66666 10.93748,0 15.62497,1.14583 4.68749,1.04167 5.72916,4.0625 1.87499,5.20832 1.87499,83.64569 0,10.41665 -0.52083,14.68748 -0.52083,4.16666 -3.02083,5.62499 -3.95832,2.39583 -13.85414,3.64583 -5.62499,0.72917 -11.04165,0.72917 z m 5.10416,-121.97898 q -14.16665,0 -18.33331,-1.97916 -4.06249,-1.97916 -4.16666,-8.22915 l -0.10416,-9.06249 q 0,-5.52082 0.20833,-10.93748 0.20833,-4.374994 3.54166,-6.354158 4.0625,-2.395829 19.2708,-2.395829 14.16665,0 18.22914,1.979163 4.16666,1.979164 4.27083,8.124984 l 0.10417,9.16666 q 0,5.52082 -0.20834,10.93748 -0.20833,5.41666 -5.20832,7.08332 -4.89583,1.66666 -17.60414,1.66666 z"
         id="path124" /><path
         style="font-family:'Ask Why';-inkscape-font-specification:'Ask Why';text-align:center;letter-spacing:7px;text-anchor:middle"
         d="m 921.19703,254.61953 q -7.39582,0 -11.45831,-1.45834 -3.95833,-1.45833 -3.95833,-6.14582 0,-28.43745 -0.41667,-58.64574 -0.41666,-26.77079 -0.52083,-52.29158 -10.72915,0.10416 -22.0833,0.10416 -3.54166,0 -5.83332,-0.72916 -4.79166,-1.66666 -5.62499,-10.62498 -0.83334,-8.95832 -0.83334,-16.24998 0,-8.43748 2.60417,-10.833314 4.37499,-4.062493 92.81235,-4.062493 6.04166,0 9.37498,1.145831 3.4375,1.041665 4.6875,4.583326 1.35416,4.06249 1.35416,17.70831 0,5.10415 -0.3125,7.39582 -0.72916,5.52082 -3.85416,7.29165 -3.02083,1.77083 -9.27082,2.1875 -7.81249,0.52083 -16.24997,0.83333 0.10416,22.29163 0.625,48.85409 0.52083,25.93746 0.52083,43.74993 0,8.95832 -0.10417,15.83331 -0.10416,5.20832 -2.60416,7.70832 -2.39583,2.39583 -9.16665,3.02083 -6.66666,0.625 -19.68747,0.625 z"
         id="path125" /><path
         style="font-family:'Ask Why';-inkscape-font-specification:'Ask Why';text-align:center;letter-spacing:7px;word-spacing:0px;text-anchor:middle"
         d="m 1033.4052,254.61953 q -6.6666,0 -6.6666,-9.58332 v -49.79159 q -21.1458,-36.45827 -34.27082,-75.31238 -3.12499,-9.37498 -3.12499,-13.33331 0,-4.79166 12.91661,-9.166653 11.25,-3.749994 18.5417,-3.749994 4.375,0 6.25,1.874997 2.6041,2.395829 4.6875,8.74999 10.8333,32.29161 17.0833,53.74991 9.8958,-40.31244 15.8333,-54.58325 3.9583,-9.479148 10.5208,-9.479148 8.3333,0 22.9166,4.687493 16.3542,5.208325 16.3542,11.458315 0,3.64583 -2.9167,10.52082 -17.0833,39.27077 -37.9166,74.27071 1.9791,36.45828 1.9791,50.83325 0,7.49999 -5.9374,7.70832 -25.3125,1.14584 -36.25,1.14584 z"
         id="path126" /></g><g
       id="text2"
       style="font-size:213.333px;white-space:pre;fill:#bb8abf;stroke:#000000;stroke-width:2.89134"
       inkscape:label="Famtivity"
       transform="translate(-18.548973,87.673651)"
       aria-label="FaMTiViTY"><path
         style="font-family:'Ask Why';-inkscape-font-specification:'Ask Why';text-align:center;text-anchor:middle;fill:#f27173"
         d="m 67.34424,254.61953 q -7.708321,0 -8.020821,-8.33332 -1.354164,-43.5416 -1.354164,-87.0832 0,-42.81243 1.249998,-57.49991 0.416666,-5.208322 5.520824,-6.14582 1.979164,-0.416666 4.270827,-0.520833 25.31246,-1.354164 50.520756,-1.354164 15.10414,0 30.20828,0.520832 4.37499,0.208333 6.45832,1.145832 2.1875,0.833332 2.8125,2.499996 0.625,1.666664 0.625,4.270827 0,6.35416 -1.25,15.52081 -1.25,9.06248 -3.43749,15.52081 -0.9375,2.81249 -2.39583,3.85416 -1.35417,1.04166 -3.95833,1.04166 -7.39582,0 -42.2916,-2.91666 -0.72916,21.24997 -1.25,42.39577 l 28.12496,-0.3125 q 3.22916,0 6.35415,1.04166 3.125,1.04167 3.125,7.70832 0,8.22916 -1.25,23.54163 -0.3125,3.64583 -2.08333,5.20833 -1.66666,1.56249 -5.31249,1.77083 l -13.74998,0.93749 -15.83331,0.41667 v 1.97916 q 0,11.66665 0.20834,21.7708 0.10416,2.70833 0.10416,6.14583 0,3.43749 -6.354153,4.47916 -14.687476,2.39583 -31.041617,2.39583 z"
         id="path109" /><path
         style="font-family:'Ask Why';-inkscape-font-specification:'Ask Why';text-align:center;text-anchor:middle"
         d="m 207.34401,206.4946 q 0,7.49999 6.56249,7.49999 3.33333,0 8.85416,-3.85416 5.62499,-3.95833 10.20831,-11.04165 3.33333,-5.10416 6.97916,-16.87497 -14.27081,0 -23.43746,6.45832 -9.16666,6.45832 -9.16666,17.81247 z m -41.87493,1.04167 q 0,-26.77079 17.70831,-42.81243 17.7083,-16.14581 57.08324,-16.14581 0,-17.70831 -22.60413,-17.70831 -6.66666,0 -17.39581,3.125 -10.72915,3.12499 -14.58331,3.12499 -4.06249,0 -6.24999,-2.39583 -2.18749,-2.39583 -4.58332,-9.58331 -3.75,-11.45832 -3.75,-17.29164 0,-4.58333 3.22916,-6.14583 4.16666,-1.97916 14.47915,-4.479156 14.99997,-3.541661 36.6666,-3.541661 39.27078,0 53.33325,21.041637 7.70832,11.56248 7.70832,28.22912 0,8.85415 -0.83333,26.24996 -1.45833,28.22912 -1.45833,38.64577 0,9.99998 1.14583,21.56246 1.14583,11.45832 1.14583,15.41664 0,5.10416 -10.83331,7.18749 -13.02081,2.60417 -28.54162,2.60417 -5.83333,0 -6.87499,-3.95833 -1.5625,-6.45832 -2.1875,-13.85415 -11.66665,13.64582 -35.10411,13.64582 -4.58333,0 -11.04165,-1.97917 -6.35415,-1.97916 -12.39581,-6.97915 -14.06248,-11.87498 -14.06248,-33.95828 z"
         id="path110" /><path
         style="font-family:'Ask Why';-inkscape-font-specification:'Ask Why';text-align:center;text-anchor:middle;fill:#50c6e0"
         d="m 331.61464,253.99453 q -30.10412,0 -30.10412,-8.85416 0,-26.45829 10.72915,-104.99983 3.22916,-23.64579 4.58333,-31.97911 1.97916,-11.562485 6.77082,-12.499984 10.83332,-1.979163 31.24995,-1.979163 7.91665,0 11.14582,2.812495 3.33332,2.812496 5.62499,10.312482 9.99998,32.18745 12.91664,40.62494 16.24998,-47.812427 20.62497,-50.10409 2.60416,-1.458331 9.16665,-1.458331 11.04165,0 22.91663,1.979164 9.47915,1.666664 12.39582,4.062497 6.66665,5.52082 12.39581,61.8749 4.58333,44.79159 4.58333,76.14571 0,1.875 -0.20834,4.58332 -0.10416,2.70833 -3.12499,5.3125 -2.29167,1.97916 -11.87498,3.02082 -4.79166,0.52084 -7.49999,0.52084 -6.35416,0 -12.81248,-0.9375 -6.87499,-0.9375 -7.70832,-7.91666 -0.41667,-2.91666 -0.52083,-6.56248 -0.9375,-20.8333 -6.04166,-85.41653 -5.10416,18.12497 -9.27082,31.24995 -4.37499,13.85414 -6.35416,22.08329 -1.97916,8.12499 -3.02083,12.29165 -0.83333,3.64583 -3.54166,4.27083 -2.60416,0.625 -6.04165,0.625 -17.81247,0 -20.41664,-1.66667 -1.77083,-1.04166 -2.70833,-5.31249 -0.72916,-3.12499 -13.74997,-54.79158 -6.87499,73.54155 -6.87499,83.54153 0,5 -3.02083,7.08333 -2.91666,2.08333 -10.20832,2.08333 z"
         id="path111" /><path
         style="font-family:'Ask Why';-inkscape-font-specification:'Ask Why';text-align:center;text-anchor:middle;fill:#f27173"
         d="m 527.65601,254.61953 q -7.39582,0 -11.45831,-1.45834 -3.95833,-1.45833 -3.95833,-6.14582 0,-28.43745 -0.41666,-58.64574 -0.41667,-26.77079 -0.52084,-52.29158 -10.72915,0.10416 -22.08329,0.10416 -3.54166,0 -5.83333,-0.72916 -4.79166,-1.66666 -5.62499,-10.62498 -0.83333,-8.95832 -0.83333,-16.24998 0,-8.43748 2.60416,-10.833314 4.37499,-4.062493 92.81235,-4.062493 6.04166,0 9.37499,1.145831 3.43749,1.041665 4.68749,4.583326 1.35417,4.06249 1.35417,17.70831 0,5.10415 -0.3125,7.39582 -0.72917,5.52082 -3.85416,7.29165 -3.02083,1.77083 -9.27082,2.1875 -7.81249,0.52083 -16.24998,0.83333 0.10417,22.29163 0.625,48.85409 0.52083,25.93746 0.52083,43.74993 0,8.95832 -0.10416,15.83331 -0.10417,5.20832 -2.60416,7.70832 -2.39583,2.39583 -9.16666,3.02083 -6.66665,0.625 -19.68747,0.625 z"
         id="path112" /><path
         style="font-family:'Ask Why';-inkscape-font-specification:'Ask Why';text-align:center;text-anchor:middle;fill:#ffc233"
         d="m 619.21833,254.61953 q -4.16666,0 -10.93748,-0.72917 -6.66666,-0.625 -8.85416,-5.10416 -1.77083,-3.43749 -1.77083,-12.29165 0.625,-42.91659 3.85416,-86.66652 0.41667,-5.41666 5.31249,-7.08333 4.89583,-1.66666 17.60414,-1.66666 10.93749,0 15.62498,1.14583 4.68749,1.04167 5.72916,4.0625 1.87499,5.20832 1.87499,83.64569 0,10.41665 -0.52083,14.68748 -0.52083,4.16666 -3.02083,5.62499 -3.95832,2.39583 -13.85414,3.64583 -5.62499,0.72917 -11.04165,0.72917 z m 5.10416,-121.97898 q -14.16665,0 -18.33331,-1.97916 -4.06249,-1.97916 -4.16666,-8.22915 l -0.10416,-9.06249 q 0,-5.52082 0.20833,-10.93748 0.20833,-4.374994 3.54166,-6.354158 4.06249,-2.395829 19.2708,-2.395829 14.16665,0 18.22914,1.979163 4.16666,1.979164 4.27083,8.124984 l 0.10416,9.16666 q 0,5.52082 -0.20833,10.93748 -0.20833,5.41666 -5.20832,7.08332 -4.89583,1.66666 -17.60414,1.66666 z"
         id="path113" /><path
         style="font-family:'Ask Why';-inkscape-font-specification:'Ask Why';text-align:center;text-anchor:middle"
         d="m 719.63487,254.61953 h -6.66666 q -5.93749,0 -11.24998,-1.45834 -5.31249,-1.35416 -6.87499,-6.35415 -11.66665,-37.49994 -27.39579,-111.04149 -4.16666,-19.68747 -5.41666,-24.16663 -1.04166,-3.85416 -1.04166,-6.66666 0,-1.45833 0.52083,-3.85416 0.625,-2.499992 8.33332,-3.74999 21.87496,-3.645827 30.20828,-3.645827 7.29166,0 9.58332,13.854147 l 5.20833,30.72911 q 6.97915,41.77077 14.89581,79.47904 3.74999,-22.39579 6.87498,-43.22909 9.79166,-64.16657 13.02082,-73.33322 2.29166,-6.354156 8.95832,-6.354156 2.70833,0 11.56248,1.354165 18.9583,3.020828 23.22913,5.104161 4.27082,2.08333 4.27082,6.77082 0,4.99999 -2.18749,11.97915 -10.31249,32.91661 -18.54164,65.52073 -13.43748,53.54158 -17.08331,61.66656 -3.02082,6.77083 -12.18748,7.08333 -7.39582,0.3125 -28.02078,0.3125 z"
         id="path114" /><path
         style="font-family:'Ask Why';-inkscape-font-specification:'Ask Why';text-align:center;text-anchor:middle;fill:#ffc233"
         d="m 827.75971,254.61953 q -4.16666,0 -10.93748,-0.72917 -6.66666,-0.625 -8.85415,-5.10416 -1.77084,-3.43749 -1.77084,-12.29165 0.625,-42.91659 3.85417,-86.66652 0.41666,-5.41666 5.31249,-7.08333 4.89582,-1.66666 17.60414,-1.66666 10.93748,0 15.62497,1.14583 4.68749,1.04167 5.72916,4.0625 1.87499,5.20832 1.87499,83.64569 0,10.41665 -0.52083,14.68748 -0.52083,4.16666 -3.02083,5.62499 -3.95832,2.39583 -13.85414,3.64583 -5.62499,0.72917 -11.04165,0.72917 z m 5.10416,-121.97898 q -14.16665,0 -18.33331,-1.97916 -4.06249,-1.97916 -4.16666,-8.22915 l -0.10416,-9.06249 q 0,-5.52082 0.20833,-10.93748 0.20833,-4.374994 3.54166,-6.354158 4.0625,-2.395829 19.2708,-2.395829 14.16665,0 18.22914,1.979163 4.16666,1.979164 4.27083,8.124984 l 0.10417,9.16666 q 0,5.52082 -0.20834,10.93748 -0.20833,5.41666 -5.20832,7.08332 -4.89583,1.66666 -17.60414,1.66666 z"
         id="path115" /><path
         style="font-family:'Ask Why';-inkscape-font-specification:'Ask Why';text-align:center;letter-spacing:7px;text-anchor:middle;fill:#f27173"
         d="m 921.19703,254.61953 q -7.39582,0 -11.45831,-1.45834 -3.95833,-1.45833 -3.95833,-6.14582 0,-28.43745 -0.41667,-58.64574 -0.41666,-26.77079 -0.52083,-52.29158 -10.72915,0.10416 -22.0833,0.10416 -3.54166,0 -5.83332,-0.72916 -4.79166,-1.66666 -5.62499,-10.62498 -0.83334,-8.95832 -0.83334,-16.24998 0,-8.43748 2.60417,-10.833314 4.37499,-4.062493 92.81235,-4.062493 6.04166,0 9.37498,1.145831 3.4375,1.041665 4.6875,4.583326 1.35416,4.06249 1.35416,17.70831 0,5.10415 -0.3125,7.39582 -0.72916,5.52082 -3.85416,7.29165 -3.02083,1.77083 -9.27082,2.1875 -7.81249,0.52083 -16.24997,0.83333 0.10416,22.29163 0.625,48.85409 0.52083,25.93746 0.52083,43.74993 0,8.95832 -0.10417,15.83331 -0.10416,5.20832 -2.60416,7.70832 -2.39583,2.39583 -9.16665,3.02083 -6.66666,0.625 -19.68747,0.625 z"
         id="path116" /><path
         style="font-family:'Ask Why';-inkscape-font-specification:'Ask Why';text-align:center;letter-spacing:7px;word-spacing:0px;text-anchor:middle;fill:#50c6e0"
         d="m 1033.4052,254.61953 q -6.6666,0 -6.6666,-9.58332 v -49.79159 q -21.1458,-36.45827 -34.27082,-75.31238 -3.12499,-9.37498 -3.12499,-13.33331 0,-4.79166 12.91661,-9.166653 11.25,-3.749994 18.5417,-3.749994 4.375,0 6.25,1.874997 2.6041,2.395829 4.6875,8.74999 10.8333,32.29161 17.0833,53.74991 9.8958,-40.31244 15.8333,-54.58325 3.9583,-9.479148 10.5208,-9.479148 8.3333,0 22.9166,4.687493 16.3542,5.208325 16.3542,11.458315 0,3.64583 -2.9167,10.52082 -17.0833,39.27077 -37.9166,74.27071 1.9791,36.45828 1.9791,50.83325 0,7.49999 -5.9374,7.70832 -25.3125,1.14584 -36.25,1.14584 z"
         id="path117" /></g></g><g
     inkscape:label="Layer 1 copy"
     inkscape:groupmode="layer"
     id="g108"
     style="display:none"
     transform="translate(-15.187069,-169.81904)"><text
       xml:space="preserve"
       id="text100"
       style="font-size:213.333px;white-space:pre;shape-inside:url(#rect108);shape-padding:0;display:inline;opacity:1;fill:#000000;fill-opacity:1;stroke:#000000;stroke-width:2.89134;stroke-dasharray:none;stroke-opacity:1"
       x="513.80127"
       y="0"
       transform="translate(-15.477758,91.673649)"><tspan
         x="19.525391"
         y="251.49453"
         id="tspan20">F<tspan
   style="font-family:'Ask Why';-inkscape-font-specification:'Ask Why';text-align:center;text-anchor:middle"
   id="tspan16">a</tspan>MTi<tspan
   style="font-family:'Ask Why';-inkscape-font-specification:'Ask Why';text-align:center;text-anchor:middle"
   id="tspan17">V</tspan>i<tspan
   dx="-7.0000076"
   style="letter-spacing:7px"
   id="tspan18">T</tspan><tspan
   style="letter-spacing:7px;word-spacing:0px"
   id="tspan19">Y</tspan></tspan></text><text
       xml:space="preserve"
       id="text108"
       style="font-size:213.333px;white-space:pre;shape-inside:url(#rect109);shape-padding:0;display:inline;opacity:1;fill:#bb8abf;stroke:#000000;stroke-width:2.89134;stroke-dasharray:none;stroke-opacity:1"
       x="513.80127"
       y="0"
       transform="translate(-18.548973,87.673651)"
       inkscape:label="Famtivity"><tspan
         x="19.525391"
         y="251.49453"
         id="tspan30"><tspan
           style="fill:#f27173"
           id="tspan21">F</tspan><tspan
           style="font-family:'Ask Why';-inkscape-font-specification:'Ask Why';text-align:center;text-anchor:middle"
           id="tspan22">a</tspan><tspan
           style="fill:#50c6e0"
           id="tspan23">M</tspan><tspan
           style="fill:#f27173"
           id="tspan24">T</tspan><tspan
           style="fill:#ffc233"
           id="tspan25">i</tspan><tspan
           style="font-family:'Ask Why';-inkscape-font-specification:'Ask Why';text-align:center;text-anchor:middle"
           id="tspan26">V</tspan><tspan
           style="fill:#ffc233"
           id="tspan27">i</tspan><tspan
           dx="-7.0000076"
           style="letter-spacing:7px;fill:#f27173"
           id="tspan28">T</tspan><tspan
           style="letter-spacing:7px;word-spacing:0px;fill:#50c6e0"
           id="tspan29">Y</tspan></tspan></text></g><g
     inkscape:groupmode="layer"
     id="layer2"
     inkscape:label="Smileys"
     style="display:inline"
     transform="translate(-15.187069,-169.81904)"><ellipse
       style="opacity:1;fill:#000000;fill-opacity:1;stroke:#000000;stroke-width:2.89134;stroke-dasharray:none;stroke-opacity:1"
       id="path25"
       cx="821.87994"
       cy="191.35239"
       rx="0.91524535"
       ry="0.85422903" /><ellipse
       style="opacity:1;fill:#000000;fill-opacity:1;stroke:#000000;stroke-width:2.89134;stroke-dasharray:none;stroke-opacity:1"
       id="ellipse25"
       cx="806.38177"
       cy="191.35239"
       rx="0.91524535"
       ry="0.85422903" /><ellipse
       style="opacity:1;fill:none;fill-opacity:1;fill-rule:evenodd;stroke:#000000;stroke-width:0.952441;stroke-dasharray:none;stroke-opacity:1"
       id="path32"
       cx="813.77515"
       cy="188.17445"
       rx="11.433843"
       ry="13.569415"
       clip-path="url(#clipPath41)"
       transform="matrix(1.206122,0,0,1.206122,-167.21907,-36.293127)" /></g><g
     inkscape:groupmode="layer"
     id="g44"
     inkscape:label="Smileys copy"
     style="display:inline"
     transform="translate(-15.187069,-169.81904)"><ellipse
       style="opacity:1;fill:#000000;fill-opacity:1;stroke:#000000;stroke-width:2.89134;stroke-dasharray:none;stroke-opacity:1"
       id="ellipse42"
       cx="612.71259"
       cy="191.35239"
       rx="0.91524535"
       ry="0.85422903" /><ellipse
       style="opacity:1;fill:#000000;fill-opacity:1;stroke:#000000;stroke-width:2.89134;stroke-dasharray:none;stroke-opacity:1"
       id="ellipse43"
       cx="597.21442"
       cy="191.35239"
       rx="0.91524535"
       ry="0.85422903" /><ellipse
       style="opacity:1;fill:none;fill-opacity:1;fill-rule:evenodd;stroke:#000000;stroke-width:0.952441;stroke-dasharray:none;stroke-opacity:1"
       id="ellipse44"
       cx="813.77515"
       cy="188.17445"
       rx="11.433843"
       ry="13.569415"
       clip-path="url(#clipPath41)"
       transform="matrix(1.206122,0,0,1.206122,-376.38643,-36.293127)" /></g></svg>
