<?xml version="1.0" encoding="UTF-8" standalone="no"?>
<!-- Created with Inkscape (http://www.inkscape.org/) -->

<svg
   width="290.53064mm"
   height="49.763515mm"
   viewBox="0 0 1098.0686 188.08258"
   version="1.1"
   id="svg1"
   sodipodi:docname="famtivitylogo.svg"
   inkscape:version="1.3.2 (091e20e, 2023-11-25, custom)"
   xmlns:inkscape="http://www.inkscape.org/namespaces/inkscape"
   xmlns:sodipodi="http://sodipodi.sourceforge.net/DTD/sodipodi-0.dtd"
   xmlns="http://www.w3.org/2000/svg"
   xmlns:svg="http://www.w3.org/2000/svg">
  <sodipodi:namedview
     id="namedview1"
     pagecolor="#ffffff"
     bordercolor="#000000"
     borderopacity="0.25"
     inkscape:showpageshadow="2"
     inkscape:pageopacity="0.0"
     inkscape:pagecheckerboard="0"
     inkscape:deskcolor="#d1d1d1"
     inkscape:document-units="mm"
     inkscape:zoom="0.72430042"
     inkscape:cx="527.40547"
     inkscape:cy="390.03153"
     inkscape:window-width="1920"
     inkscape:window-height="1009"
     inkscape:window-x="-8"
     inkscape:window-y="-8"
     inkscape:window-maximized="1"
     inkscape:current-layer="g76" />
  <defs
     id="defs1">
    <clipPath
       clipPathUnits="userSpaceOnUse"
       id="clipPath72">
      <path
         id="path73"
         style="fill:#ff0000;fill-opacity:1;fill-rule:nonzero;stroke:none"
         d="M 4.7500001,225.93946 V 388.66798 H 1112.0196 V 225.93946 H 837.98244 c 0.82431,0.43363 1.60915,0.94452 2.33789,1.52148 0.25003,0.19796 0.48866,0.41157 0.73242,0.61719 0.90584,0.80391 1.72487,1.70158 2.43164,2.68555 0.42609,0.59318 0.55935,0.83985 0.9336,1.45703 1.00457,1.72053 1.41708,3.66973 1.71484,5.61523 0.27266,1.65558 0.1885,3.32861 0.0195,4.98828 -0.16666,1.28937 -0.47205,2.55503 -0.81054,3.8086 -0.43576,1.526 -0.93924,3.03148 -1.43946,4.53711 -0.46683,1.40101 -1.01263,2.77241 -1.58984,4.13086 -0.41189,0.99157 -0.87472,1.95953 -1.3418,2.92578 -0.29336,0.64998 -0.63627,1.27413 -0.99804,1.88672 -0.0231,0.091 -0.0414,0.1831 -0.0684,0.27343 -0.0638,0.21343 -0.15252,0.41758 -0.22852,0.62696 -0.38776,0.91514 -0.91505,1.7873 -1.60156,2.51172 -0.19385,0.20455 -0.40373,0.39307 -0.60547,0.58984 -1.27397,1.09679 -2.82669,1.74668 -4.38281,2.33008 -1.52459,0.54873 -3.10308,0.91378 -4.68555,1.24805 -1.26253,0.25094 -2.53942,0.42949 -3.81641,0.58789 -1.03174,0.14076 -2.06848,0.22145 -3.10742,0.2832 -0.33866,0.071 -0.6769,0.14024 -1.01562,0.21094 -1.59282,0.34847 -3.21585,0.50103 -4.83789,0.63086 -1.65004,0.12622 -3.30502,0.18105 -4.95899,0.22265 -1.61458,0.0441 -3.2279,0.0513 -4.8418,-0.0137 -1.83401,-0.10837 -3.66215,-0.28949 -5.47656,-0.57812 -1.16574,-0.19964 -2.32049,-0.50728 -3.39648,-1.00586 -0.20022,-0.0928 -0.39459,-0.19788 -0.5918,-0.29688 -1.14852,-0.59985 -2.02472,-1.53317 -2.79883,-2.54883 -0.66703,-0.94841 -1.12571,-2.00992 -1.55078,-3.08203 -0.17923,-0.4756 -0.3402,-0.95861 -0.5,-1.4414 -0.1009,-0.24766 -0.21279,-0.49092 -0.30859,-0.74024 -0.44206,-1.14582 -0.71114,-2.3455 -0.95899,-3.54492 -0.0333,-0.16411 -0.057,-0.32959 -0.0879,-0.49414 -0.10512,-0.4288 -0.21264,-0.85616 -0.30859,-1.28711 -0.27455,-1.37129 -0.46275,-2.75858 -0.66016,-4.14258 -0.24243,-1.66739 -0.37043,-3.34882 -0.50586,-5.02734 -0.0478,-0.56696 -0.0862,-1.13352 -0.12304,-1.70117 -0.12262,-0.98923 -0.24736,-1.97722 -0.36719,-2.9668 -0.13006,-1.04105 -0.25973,-2.08218 -0.375,-3.125 -0.10418,-0.93924 -0.15244,-1.88345 -0.14844,-2.82813 0.0384,-0.99943 0.22119,-1.996 0.72461,-2.87695 0.45945,-0.80401 0.67951,-0.92661 1.32813,-1.54102 0.30806,-0.23881 0.63762,-0.44008 0.9746,-0.62695 -1.25215,-1.25352 -1.62392,-2.65668 -1.32812,-3.82031 H 622.68361 c 0.0186,0.0604 0.0426,0.11902 0.0606,0.17969 0.34432,0.87512 0.65605,1.75887 0.98242,2.64062 0.37222,1.21551 0.72613,2.4365 0.93359,3.69336 0.18659,1.07265 0.34063,2.14645 0.47656,3.22656 0.12588,0.98348 0.22834,1.97054 0.30664,2.95899 0.0694,0.68656 0.26055,1.35705 0.33985,2.04297 0.0966,0.65242 0.16317,1.30959 0.3125,1.95312 0.28544,1.32778 0.49287,2.66703 0.62109,4.01953 0.13523,1.48948 0.32071,2.97949 0.25781,4.47852 -0.0211,1.22984 -0.049,2.46225 -0.1875,3.68555 0.65497,0.20496 1.32633,0.35668 1.96289,0.61132 0.96514,0.35933 1.8497,0.88622 2.73047,1.41211 0.48365,0.31598 0.97823,0.61203 1.47852,0.89844 0.81881,0.5159 1.44078,0.82401 2.50781,1.61133 0.23833,0.20132 0.47847,0.40219 0.7168,0.60351 8.78291,7.41889 -8.08576,5.26265 -12.19922,7.39649 0.2305,0.71705 0.32496,1.46094 0.27734,2.20508 0.41228,0.53653 0.78826,1.09863 1.15039,1.66992 0.21056,0.16657 0.17345,0.24669 0.41993,0.42578 0.0312,0.0227 0.0625,0.0457 0.0937,0.0684 -0.119,-0.0608 -0.24055,-0.12099 -0.3086,-0.1582 0.14953,0.24367 0.30656,0.48242 0.44922,0.73047 0.72403,1.23794 1.3241,2.59405 1.5918,4.01171 0.095,0.50304 0.14284,1.01466 0.21484,1.52149 0.1436,2.44449 -0.40405,4.46576 -1.71484,6.53515 -0.4974,0.78526 -0.97919,1.22669 -1.61133,1.88672 -0.86986,0.85616 -1.91011,1.50506 -2.94141,2.14063 -0.8247,0.54741 -1.72687,0.96071 -2.63476,1.34765 -1.18053,0.51806 -2.43319,0.80264 -3.70313,0.98829 -0.99356,0.12513 -1.9941,0.15268 -2.99414,0.17578 -1.35784,0.0201 -2.69052,-0.18652 -4,-0.53321 -0.26113,-0.0722 -0.52229,-0.14696 -0.78515,-0.21289 -0.9614,0.25639 -1.94247,0.42147 -2.93165,0.53907 -1.18138,0.16134 -2.36705,0.26705 -3.55664,0.34375 -0.94389,0.1023 -1.89082,0.1872 -2.83789,0.2539 -1.13021,0.0756 -2.26227,0.0895 -3.39453,0.10352 -1.08592,0.0123 -2.17184,0.0146 -3.25781,0.0176 -1.55267,0.0157 -3.07739,-0.24951 -4.57422,-0.63868 -1.74898,-0.46801 -3.30139,-1.35607 -4.72461,-2.45507 -1.33387,-1.03389 -2.39598,-2.32663 -3.30273,-3.74024 -0.6117,-1.00476 -1.17228,-2.03799 -1.66602,-3.10547 -0.44419,-1.01224 -0.79361,-2.0576 -1.0625,-3.1289 -0.21584,-0.75861 -0.40948,-1.55697 -0.45898,-2.35157 -0.0304,-0.48848 -9.6e-4,-0.97932 -0.002,-1.46875 0.16245,-0.75212 0.22216,-1.53316 0.48633,-2.25586 0.0163,-0.0444 0.0377,-0.0867 0.0547,-0.13085 -0.50675,0.0654 -1.01351,0.13029 -1.52149,0.1875 -15.04184,1.69391 -16.67139,-12.90461 -2.35156,-15.4043 -0.29189,-0.76614 -0.52272,-1.54759 -0.71484,-2.34375 -0.15668,-0.69862 -0.30925,-1.3994 -0.40625,-2.10938 -0.10535,-0.55892 -0.26834,-1.10538 -0.39258,-1.66015 -0.20891,-0.79948 -0.46019,-1.58609 -0.66016,-2.38868 -0.1731,-0.74249 -0.31382,-1.49097 -0.52343,-2.2246 -0.18803,-0.78818 -0.4374,-1.56011 -0.61133,-2.35157 -0.10849,-0.5505 -0.21785,-1.10102 -0.31055,-1.65429 -0.20759,-0.93776 -0.43381,-1.87236 -0.55859,-2.82618 -0.20468,-1.2654 -0.42892,-2.53324 -0.41992,-3.82031 0.0178,-0.36418 0.0247,-0.73021 0.0527,-1.09375 0.13891,-1.80348 0.79782,-3.52367 1.8457,-4.99219 0.37448,-0.41125 0.71007,-0.8618 1.12305,-1.23437 0.28268,-0.25503 0.58268,-0.48165 0.89063,-0.69336 -0.32752,-0.53792 -0.70998,-1.04144 -1.02344,-1.58789 z M 618.15822,280.29102 c -0.0885,0.0379 -0.16992,0.0893 -0.25391,0.13672 0.0126,-0.006 0.0224,-0.008 0.0352,-0.0137 0.0759,-0.0349 0.29555,-0.15595 0.21875,-0.12305 z m -11.57617,9.71094 c -0.21533,-0.006 -0.23623,0.0144 0.30078,0.0273 -0.0938,-0.0155 -0.20758,-0.0247 -0.30078,-0.0273 z" />
    </clipPath>
  </defs>
  <g
     inkscape:label="Layer 1"
     inkscape:groupmode="layer"
     id="layer1"
     style="display:inline"
     transform="translate(-11.302387,-204.49034)">
    <g
       id="text85"
       clip-path="url(#clipPath72)"
       style="font-size:213.333px;font-family:'Ask Why';-inkscape-font-specification:'Ask Why';text-align:center;letter-spacing:7px;word-spacing:0px;text-anchor:middle;stroke:#000000;stroke-width:1.7915;paint-order:markers fill stroke"
       transform="translate(3.905047,3.9050504)"
       aria-label="FaMTiViTY">
      <path
         d="m 21.573122,387.77212 q -7.708321,0 -8.020821,-8.33332 -1.354164,-43.5416 -1.354164,-87.08319 0,-42.81244 1.249998,-57.49991 0.416666,-5.20833 5.520824,-6.14583 1.979164,-0.41666 4.270827,-0.52083 25.312459,-1.35416 50.520752,-1.35416 15.104143,0 30.208282,0.52083 4.375,0.20833 6.45833,1.14583 2.18749,0.83333 2.81249,2.5 0.625,1.66666 0.625,4.27082 0,6.35416 -1.25,15.52081 -1.24999,9.06249 -3.43749,15.52081 -0.9375,2.8125 -2.39583,3.85416 -1.35417,1.04167 -3.95833,1.04167 -7.395819,0 -42.291597,-2.91667 -0.729166,21.24997 -1.249998,42.39577 l 28.124955,-0.3125 q 3.229162,0 6.354157,1.04167 3.124995,1.04166 3.124995,7.70832 0,8.22915 -1.249998,23.54163 -0.3125,3.64582 -2.08333,5.20832 -1.666664,1.5625 -5.312492,1.77083 l -13.749978,0.9375 -15.833308,0.41667 v 1.97916 q 0,11.66665 0.208333,21.7708 0.104166,2.70833 0.104166,6.14582 0,3.4375 -6.354156,4.47916 -14.687477,2.39583 -31.041617,2.39583 z"
         id="path10" />
      <path
         d="m 168.5729,339.6472 q 0,7.49999 6.56249,7.49999 3.33332,0 8.85415,-3.85417 5.62499,-3.95832 10.20831,-11.04164 3.33333,-5.10416 6.97916,-16.87498 -14.27081,0 -23.43746,6.45833 -9.16665,6.45832 -9.16665,17.81247 z m -41.87494,1.04166 q 0,-26.77079 17.70831,-42.81243 17.7083,-16.14581 57.08324,-16.14581 0,-17.7083 -22.60413,-17.7083 -6.66666,0 -17.39581,3.12499 -10.72915,3.125 -14.58331,3.125 -4.06249,0 -6.24999,-2.39583 -2.18749,-2.39583 -4.58332,-9.58332 -3.75,-11.45831 -3.75,-17.29164 0,-4.58332 3.22917,-6.14582 4.16666,-1.97917 14.47914,-4.47916 14.99997,-3.54166 36.66661,-3.54166 39.27077,0 53.33324,21.04163 7.70833,11.56248 7.70833,28.22912 0,8.85415 -0.83334,26.24996 -1.45833,28.22912 -1.45833,38.64577 0,9.99999 1.14583,21.56247 1.14584,11.45831 1.14584,15.41664 0,5.10416 -10.83332,7.18749 -13.02081,2.60416 -28.54162,2.60416 -5.83333,0 -6.87499,-3.95833 -1.5625,-6.45832 -2.1875,-13.85414 -11.66664,13.64581 -35.10411,13.64581 -4.58332,0 -11.04165,-1.97916 -6.35415,-1.97917 -12.39581,-6.97916 -14.06248,-11.87498 -14.06248,-33.95828 z"
         id="path11" />
      <path
         d="m 299.84352,387.14712 q -30.10412,0 -30.10412,-8.85415 0,-26.45829 10.72915,-104.99983 3.22917,-23.6458 4.58333,-31.97912 1.97916,-11.56248 6.77082,-12.49998 10.83332,-1.97916 31.24995,-1.97916 7.91666,0 11.14582,2.81249 3.33333,2.8125 5.62499,10.31249 9.99998,32.18744 12.91665,40.62493 16.24997,-47.81242 20.62496,-50.10409 2.60416,-1.45833 9.16665,-1.45833 11.04165,0 22.91663,1.97917 9.47916,1.66666 12.39582,4.06249 6.66665,5.52083 12.39581,61.8749 4.58333,44.7916 4.58333,76.14571 0,1.875 -0.20834,4.58333 -0.10416,2.70833 -3.12499,5.31249 -2.29166,1.97916 -11.87498,3.02083 -4.79166,0.52083 -7.49999,0.52083 -6.35416,0 -12.81248,-0.9375 -6.87499,-0.93749 -7.70832,-7.91665 -0.41667,-2.91666 -0.52083,-6.56249 -0.9375,-20.8333 -6.04166,-85.41653 -5.10416,18.12497 -9.27082,31.24995 -4.37499,13.85414 -6.35415,22.0833 -1.97917,8.12499 -3.02083,12.29165 -0.83334,3.64582 -3.54166,4.27082 -2.60417,0.625 -6.04166,0.625 -17.81247,0 -20.41664,-1.66666 -1.77083,-1.04167 -2.70832,-5.31249 -0.72917,-3.125 -13.74998,-54.79158 -6.87499,73.54155 -6.87499,83.54153 0,4.99999 -3.02083,7.08332 -2.91666,2.08333 -10.20832,2.08333 z"
         id="path12" />
      <path
         d="m 502.8849,387.77212 q -7.39582,0 -11.45832,-1.45833 -3.95833,-1.45833 -3.95833,-6.14582 0,-28.43746 -0.41666,-58.64574 -0.41667,-26.77079 -0.52083,-52.29159 -10.72915,0.10417 -22.0833,0.10417 -3.54166,0 -5.83333,-0.72917 -4.79166,-1.66666 -5.62499,-10.62498 -0.83333,-8.95832 -0.83333,-16.24997 0,-8.43749 2.60416,-10.83332 4.375,-4.06249 92.81236,-4.06249 6.04165,0 9.37498,1.14583 3.43749,1.04166 4.68749,4.58332 1.35417,4.0625 1.35417,17.70831 0,5.10416 -0.3125,7.39582 -0.72917,5.52083 -3.85416,7.29166 -3.02083,1.77083 -9.27082,2.18749 -7.81249,0.52084 -16.24998,0.83333 0.10417,22.29164 0.625,48.85409 0.52084,25.93746 0.52084,43.74993 0,8.95832 -0.10417,15.83331 -0.10417,5.20833 -2.60416,7.70832 -2.39583,2.39583 -9.16665,3.02083 -6.66666,0.625 -19.68747,0.625 z"
         id="path13" />
      <path
         style="font-size:173.333px"
         d="m 596.09565,387.18618 q -3.38541,0 -8.8867,-0.59244 -5.41666,-0.50782 -7.194,-4.14713 -1.4388,-2.79296 -1.4388,-9.98696 0.50781,-34.86972 3.13151,-70.41653 0.33854,-4.40103 4.31639,-5.7552 3.97786,-1.35416 14.30336,-1.35416 8.8867,0 12.69529,0.93099 3.80858,0.84635 4.65494,3.30077 1.52343,4.23176 1.52343,67.96211 0,8.46352 -0.42318,11.93357 -0.42317,3.38541 -2.45442,4.5703 -3.21614,1.94661 -11.25649,2.96224 -4.5703,0.59244 -8.97133,0.59244 z m 4.14713,-99.10788 q -11.5104,0 -14.89581,-1.60807 -3.30077,-1.60806 -3.38541,-6.68618 l -0.0846,-7.36327 q 0,-4.48566 0.16927,-8.8867 0.16927,-3.55468 2.87759,-5.16275 3.30078,-1.94661 15.65753,-1.94661 11.51039,0 14.81116,1.60807 3.38541,1.60807 3.47005,6.60155 l 0.0846,7.4479 q 0,4.48567 -0.16928,8.8867 -0.16927,4.40104 -4.23176,5.7552 -3.97785,1.35416 -14.30335,1.35416 z"
         id="path14" />
      <path
         d="m 695.75828,387.77212 h -6.66666 q -5.93749,0 -11.24998,-1.45833 -5.31249,-1.35417 -6.87499,-6.35416 Q 659.3,342.45969 643.57086,268.91814 q -4.16666,-19.68747 -5.41666,-24.16662 -1.04166,-3.85417 -1.04166,-6.66666 0,-1.45833 0.52083,-3.85416 0.625,-2.5 8.33332,-3.75 21.87497,-3.64582 30.20829,-3.64582 7.29165,0 9.58331,13.85414 l 5.20833,30.72912 q 6.97915,41.77077 14.89581,79.47904 3.74999,-22.3958 6.87499,-43.2291 9.79165,-64.16656 13.02081,-73.33321 2.29166,-6.35416 8.95832,-6.35416 2.70833,0 11.56248,1.35416 18.9583,3.02083 23.22913,5.10416 4.27083,2.08333 4.27083,6.77082 0,5 -2.1875,11.97915 -10.31248,32.91662 -18.54164,65.52073 -13.43748,53.54158 -17.0833,61.66657 -3.02083,6.77082 -12.18748,7.08332 -7.39582,0.3125 -28.02079,0.3125 z"
         id="path15" />
      <path
         d="m 810.88312,387.77212 q -4.16666,0 -10.93748,-0.72917 -6.66666,-0.62499 -8.85415,-5.10415 -1.77083,-3.4375 -1.77083,-12.29165 0.625,-42.9166 3.85416,-86.66653 0.41666,-5.41666 5.31249,-7.08332 4.89583,-1.66667 17.60414,-1.66667 10.93748,0 15.62497,1.14584 4.6875,1.04166 5.72916,4.06249 1.875,5.20832 1.875,83.6457 0,10.41665 -0.52083,14.68748 -0.52084,4.16666 -3.02083,5.62499 -3.95833,2.39583 -13.85415,3.64582 -5.62499,0.72917 -11.04165,0.72917 z m 5.10416,-121.97897 q -14.16664,0 -18.3333,-1.97917 -4.0625,-1.97916 -4.16666,-8.22915 l -0.10417,-9.06248 q 0,-5.52083 0.20833,-10.93749 0.20834,-4.37499 3.54167,-6.35415 4.06249,-2.39583 19.2708,-2.39583 14.16664,0 18.22914,1.97916 4.16666,1.97916 4.27082,8.12499 l 0.10417,9.16665 q 0,5.52082 -0.20833,10.93748 -0.20834,5.41666 -5.20833,7.08332 -4.89583,1.66667 -17.60414,1.66667 z"
         id="path16" />
      <path
         d="m 911.32044,387.77212 q -7.39582,0 -11.45831,-1.45833 -3.95833,-1.45833 -3.95833,-6.14582 0,-28.43746 -0.41666,-58.64574 -0.41667,-26.77079 -0.52084,-52.29159 -10.72915,0.10417 -22.0833,0.10417 -3.54166,0 -5.83332,-0.72917 -4.79166,-1.66666 -5.62499,-10.62498 -0.83333,-8.95832 -0.83333,-16.24997 0,-8.43749 2.60416,-10.83332 4.37499,-4.06249 92.81235,-4.06249 6.04166,0 9.37499,1.14583 3.43749,1.04166 4.68749,4.58332 1.35416,4.0625 1.35416,17.70831 0,5.10416 -0.3125,7.39582 -0.72916,5.52083 -3.85416,7.29166 -3.02082,1.77083 -9.27081,2.18749 -7.81249,0.52084 -16.24998,0.83333 0.10417,22.29164 0.625,48.85409 0.52083,25.93746 0.52083,43.74993 0,8.95832 -0.10416,15.83331 -0.10417,5.20833 -2.60417,7.70832 -2.39583,2.39583 -9.16665,3.02083 -6.66665,0.625 -19.68747,0.625 z"
         id="path17" />
      <path
         d="m 1023.5286,387.77212 q -6.6666,0 -6.6666,-9.58332 v -49.79158 q -21.14583,-36.45828 -34.2708,-75.31238 -3.125,-9.37499 -3.125,-13.33332 0,-4.79166 12.91665,-9.16665 11.24995,-3.74999 18.54165,-3.74999 4.375,0 6.25,1.87499 2.6041,2.39583 4.6875,8.74999 10.8333,32.29162 17.0833,53.74991 9.8958,-40.31243 15.8333,-54.58324 3.9583,-9.47915 10.5208,-9.47915 8.3333,0 22.9166,4.68749 16.3542,5.20832 16.3542,11.45831 0,3.64583 -2.9167,10.52082 -17.0833,39.27077 -37.9166,74.27072 1.9792,36.45827 1.9792,50.83325 0,7.49999 -5.9375,7.70832 -25.3125,1.14583 -36.25,1.14583 z"
         id="path18" />
    </g>
    <g
       id="text31"
       clip-path="url(#clipPath72)"
       style="font-size:213.333px;font-family:'Ask Why';-inkscape-font-specification:'Ask Why';text-align:center;letter-spacing:7px;word-spacing:0px;text-anchor:middle;fill:#2622ac;stroke:#000000;stroke-width:1.7915;paint-order:markers fill stroke"
       transform="translate(0,-0.97626193)"
       aria-label="FaMTiViTY">
      <path
         style="fill:#f27173"
         d="m 21.573122,387.77212 q -7.708321,0 -8.020821,-8.33332 -1.354164,-43.5416 -1.354164,-87.08319 0,-42.81244 1.249998,-57.49991 0.416666,-5.20833 5.520824,-6.14583 1.979164,-0.41666 4.270827,-0.52083 25.312459,-1.35416 50.520752,-1.35416 15.104143,0 30.208282,0.52083 4.375,0.20833 6.45833,1.14583 2.18749,0.83333 2.81249,2.5 0.625,1.66666 0.625,4.27082 0,6.35416 -1.25,15.52081 -1.24999,9.06249 -3.43749,15.52081 -0.9375,2.8125 -2.39583,3.85416 -1.35417,1.04167 -3.95833,1.04167 -7.395819,0 -42.291597,-2.91667 -0.729166,21.24997 -1.249998,42.39577 l 28.124955,-0.3125 q 3.229162,0 6.354157,1.04167 3.124995,1.04166 3.124995,7.70832 0,8.22915 -1.249998,23.54163 -0.3125,3.64582 -2.08333,5.20832 -1.666664,1.5625 -5.312492,1.77083 l -13.749978,0.9375 -15.833308,0.41667 v 1.97916 q 0,11.66665 0.208333,21.7708 0.104166,2.70833 0.104166,6.14582 0,3.4375 -6.354156,4.47916 -14.687477,2.39583 -31.041617,2.39583 z"
         id="path1" />
      <path
         style="fill:#bb8abf"
         d="m 168.5729,339.6472 q 0,7.49999 6.56249,7.49999 3.33332,0 8.85415,-3.85417 5.62499,-3.95832 10.20831,-11.04164 3.33333,-5.10416 6.97916,-16.87498 -14.27081,0 -23.43746,6.45833 -9.16665,6.45832 -9.16665,17.81247 z m -41.87494,1.04166 q 0,-26.77079 17.70831,-42.81243 17.7083,-16.14581 57.08324,-16.14581 0,-17.7083 -22.60413,-17.7083 -6.66666,0 -17.39581,3.12499 -10.72915,3.125 -14.58331,3.125 -4.06249,0 -6.24999,-2.39583 -2.18749,-2.39583 -4.58332,-9.58332 -3.75,-11.45831 -3.75,-17.29164 0,-4.58332 3.22917,-6.14582 4.16666,-1.97917 14.47914,-4.47916 14.99997,-3.54166 36.66661,-3.54166 39.27077,0 53.33324,21.04163 7.70833,11.56248 7.70833,28.22912 0,8.85415 -0.83334,26.24996 -1.45833,28.22912 -1.45833,38.64577 0,9.99999 1.14583,21.56247 1.14584,11.45831 1.14584,15.41664 0,5.10416 -10.83332,7.18749 -13.02081,2.60416 -28.54162,2.60416 -5.83333,0 -6.87499,-3.95833 -1.5625,-6.45832 -2.1875,-13.85414 -11.66664,13.64581 -35.10411,13.64581 -4.58332,0 -11.04165,-1.97916 -6.35415,-1.97917 -12.39581,-6.97916 -14.06248,-11.87498 -14.06248,-33.95828 z"
         id="path2" />
      <path
         style="fill:#50c6e0"
         d="m 299.84352,387.14712 q -30.10412,0 -30.10412,-8.85415 0,-26.45829 10.72915,-104.99983 3.22917,-23.6458 4.58333,-31.97912 1.97916,-11.56248 6.77082,-12.49998 10.83332,-1.97916 31.24995,-1.97916 7.91666,0 11.14582,2.81249 3.33333,2.8125 5.62499,10.31249 9.99998,32.18744 12.91665,40.62493 16.24997,-47.81242 20.62496,-50.10409 2.60416,-1.45833 9.16665,-1.45833 11.04165,0 22.91663,1.97917 9.47916,1.66666 12.39582,4.06249 6.66665,5.52083 12.39581,61.8749 4.58333,44.7916 4.58333,76.14571 0,1.875 -0.20834,4.58333 -0.10416,2.70833 -3.12499,5.31249 -2.29166,1.97916 -11.87498,3.02083 -4.79166,0.52083 -7.49999,0.52083 -6.35416,0 -12.81248,-0.9375 -6.87499,-0.93749 -7.70832,-7.91665 -0.41667,-2.91666 -0.52083,-6.56249 -0.9375,-20.8333 -6.04166,-85.41653 -5.10416,18.12497 -9.27082,31.24995 -4.37499,13.85414 -6.35415,22.0833 -1.97917,8.12499 -3.02083,12.29165 -0.83334,3.64582 -3.54166,4.27082 -2.60417,0.625 -6.04166,0.625 -17.81247,0 -20.41664,-1.66666 -1.77083,-1.04167 -2.70832,-5.31249 -0.72917,-3.125 -13.74998,-54.79158 -6.87499,73.54155 -6.87499,83.54153 0,4.99999 -3.02083,7.08332 -2.91666,2.08333 -10.20832,2.08333 z"
         id="path3" />
      <path
         style="fill:#f27173"
         d="m 502.8849,387.77212 q -7.39582,0 -11.45832,-1.45833 -3.95833,-1.45833 -3.95833,-6.14582 0,-28.43746 -0.41666,-58.64574 -0.41667,-26.77079 -0.52083,-52.29159 -10.72915,0.10417 -22.0833,0.10417 -3.54166,0 -5.83333,-0.72917 -4.79166,-1.66666 -5.62499,-10.62498 -0.83333,-8.95832 -0.83333,-16.24997 0,-8.43749 2.60416,-10.83332 4.375,-4.06249 92.81236,-4.06249 6.04165,0 9.37498,1.14583 3.43749,1.04166 4.68749,4.58332 1.35417,4.0625 1.35417,17.70831 0,5.10416 -0.3125,7.39582 -0.72917,5.52083 -3.85416,7.29166 -3.02083,1.77083 -9.27082,2.18749 -7.81249,0.52084 -16.24998,0.83333 0.10417,22.29164 0.625,48.85409 0.52084,25.93746 0.52084,43.74993 0,8.95832 -0.10417,15.83331 -0.10417,5.20833 -2.60416,7.70832 -2.39583,2.39583 -9.16665,3.02083 -6.66666,0.625 -19.68747,0.625 z"
         id="path4" />
      <path
         style="font-size:173.333px;fill:#ffc233"
         d="m 596.09565,387.18618 q -3.38541,0 -8.8867,-0.59244 -5.41666,-0.50782 -7.194,-4.14713 -1.4388,-2.79296 -1.4388,-9.98696 0.50781,-34.86972 3.13151,-70.41653 0.33854,-4.40103 4.31639,-5.7552 3.97786,-1.35416 14.30336,-1.35416 8.8867,0 12.69529,0.93099 3.80858,0.84635 4.65494,3.30077 1.52343,4.23176 1.52343,67.96211 0,8.46352 -0.42318,11.93357 -0.42317,3.38541 -2.45442,4.5703 -3.21614,1.94661 -11.25649,2.96224 -4.5703,0.59244 -8.97133,0.59244 z m 4.14713,-99.10788 q -11.5104,0 -14.89581,-1.60807 -3.30077,-1.60806 -3.38541,-6.68618 l -0.0846,-7.36327 q 0,-4.48566 0.16927,-8.8867 0.16927,-3.55468 2.87759,-5.16275 3.30078,-1.94661 15.65753,-1.94661 11.51039,0 14.81116,1.60807 3.38541,1.60807 3.47005,6.60155 l 0.0846,7.4479 q 0,4.48567 -0.16928,8.8867 -0.16927,4.40104 -4.23176,5.7552 -3.97785,1.35416 -14.30335,1.35416 z"
         id="path5" />
      <path
         style="fill:#bb8abf"
         d="m 695.75828,387.77212 h -6.66666 q -5.93749,0 -11.24998,-1.45833 -5.31249,-1.35417 -6.87499,-6.35416 Q 659.3,342.45969 643.57086,268.91814 q -4.16666,-19.68747 -5.41666,-24.16662 -1.04166,-3.85417 -1.04166,-6.66666 0,-1.45833 0.52083,-3.85416 0.625,-2.5 8.33332,-3.75 21.87497,-3.64582 30.20829,-3.64582 7.29165,0 9.58331,13.85414 l 5.20833,30.72912 q 6.97915,41.77077 14.89581,79.47904 3.74999,-22.3958 6.87499,-43.2291 9.79165,-64.16656 13.02081,-73.33321 2.29166,-6.35416 8.95832,-6.35416 2.70833,0 11.56248,1.35416 18.9583,3.02083 23.22913,5.10416 4.27083,2.08333 4.27083,6.77082 0,5 -2.1875,11.97915 -10.31248,32.91662 -18.54164,65.52073 -13.43748,53.54158 -17.0833,61.66657 -3.02083,6.77082 -12.18748,7.08332 -7.39582,0.3125 -28.02079,0.3125 z"
         id="path6" />
      <path
         style="fill:#ffc233"
         d="m 810.88312,387.77212 q -4.16666,0 -10.93748,-0.72917 -6.66666,-0.62499 -8.85415,-5.10415 -1.77083,-3.4375 -1.77083,-12.29165 0.625,-42.9166 3.85416,-86.66653 0.41666,-5.41666 5.31249,-7.08332 4.89583,-1.66667 17.60414,-1.66667 10.93748,0 15.62497,1.14584 4.6875,1.04166 5.72916,4.06249 1.875,5.20832 1.875,83.6457 0,10.41665 -0.52083,14.68748 -0.52084,4.16666 -3.02083,5.62499 -3.95833,2.39583 -13.85415,3.64582 -5.62499,0.72917 -11.04165,0.72917 z m 5.10416,-121.97897 q -14.16664,0 -18.3333,-1.97917 -4.0625,-1.97916 -4.16666,-8.22915 l -0.10417,-9.06248 q 0,-5.52083 0.20833,-10.93749 0.20834,-4.37499 3.54167,-6.35415 4.06249,-2.39583 19.2708,-2.39583 14.16664,0 18.22914,1.97916 4.16666,1.97916 4.27082,8.12499 l 0.10417,9.16665 q 0,5.52082 -0.20833,10.93748 -0.20834,5.41666 -5.20833,7.08332 -4.89583,1.66667 -17.60414,1.66667 z"
         id="path7" />
      <path
         style="fill:#f27173"
         d="m 911.32044,387.77212 q -7.39582,0 -11.45831,-1.45833 -3.95833,-1.45833 -3.95833,-6.14582 0,-28.43746 -0.41666,-58.64574 -0.41667,-26.77079 -0.52084,-52.29159 -10.72915,0.10417 -22.0833,0.10417 -3.54166,0 -5.83332,-0.72917 -4.79166,-1.66666 -5.62499,-10.62498 -0.83333,-8.95832 -0.83333,-16.24997 0,-8.43749 2.60416,-10.83332 4.37499,-4.06249 92.81235,-4.06249 6.04166,0 9.37499,1.14583 3.43749,1.04166 4.68749,4.58332 1.35416,4.0625 1.35416,17.70831 0,5.10416 -0.3125,7.39582 -0.72916,5.52083 -3.85416,7.29166 -3.02082,1.77083 -9.27081,2.18749 -7.81249,0.52084 -16.24998,0.83333 0.10417,22.29164 0.625,48.85409 0.52083,25.93746 0.52083,43.74993 0,8.95832 -0.10416,15.83331 -0.10417,5.20833 -2.60417,7.70832 -2.39583,2.39583 -9.16665,3.02083 -6.66665,0.625 -19.68747,0.625 z"
         id="path8" />
      <path
         style="fill:#50c6e0"
         d="m 1023.5286,387.77212 q -6.6666,0 -6.6666,-9.58332 v -49.79158 q -21.14583,-36.45828 -34.2708,-75.31238 -3.125,-9.37499 -3.125,-13.33332 0,-4.79166 12.91665,-9.16665 11.24995,-3.74999 18.54165,-3.74999 4.375,0 6.25,1.87499 2.6041,2.39583 4.6875,8.74999 10.8333,32.29162 17.0833,53.74991 9.8958,-40.31243 15.8333,-54.58324 3.9583,-9.47915 10.5208,-9.47915 8.3333,0 22.9166,4.68749 16.3542,5.20832 16.3542,11.45831 0,3.64583 -2.9167,10.52082 -17.0833,39.27077 -37.9166,74.27072 1.9792,36.45827 1.9792,50.83325 0,7.49999 -5.9375,7.70832 -25.3125,1.14583 -36.25,1.14583 z"
         id="path9" />
    </g>
  </g>
  <g
     inkscape:groupmode="layer"
     id="layer4"
     inkscape:label="Layer 2"
     style="display:inline"
     transform="translate(-11.302387,-204.49034)">
    <path
       style="fill:#2622ac;fill-opacity:0;stroke:#000000;stroke-width:4.35402;stroke-linecap:round;stroke-dasharray:none;stroke-opacity:1;paint-order:markers fill stroke"
       d="m 601.44795,227.37699 c 0.13827,12.52658 0.18966,12.41851 0.18966,12.41851"
       id="path56" />
    <path
       style="fill:#2622ac;fill-opacity:0;stroke:#000000;stroke-width:4.35402;stroke-linecap:round;stroke-dasharray:none;stroke-opacity:1;paint-order:markers fill stroke"
       d="m 578.65964,232.41152 c 6.44023,10.74512 6.43007,10.62589 6.43007,10.62589"
       id="path68" />
    <path
       style="display:inline;fill:#2622ac;fill-opacity:0;stroke:#000000;stroke-width:4.35402;stroke-linecap:round;stroke-dasharray:none;stroke-opacity:1;paint-order:normal"
       d="m 622.7844,231.03088 c -6.44023,10.74512 -6.43007,10.62589 -6.43007,10.62589"
       id="path69" />
    <ellipse
       style="display:inline;fill:#010000;fill-opacity:1;stroke:#000000;stroke-width:1.59351;stroke-opacity:1;paint-order:markers fill stroke"
       id="circle_shadow"
       cx="602.74097"
       cy="267.64056"
       rx="24.205843"
       ry="22.794741" />
    <ellipse
       style="display:inline;fill:#ffc233;fill-opacity:1;stroke:#000000;stroke-width:1.59351;stroke-opacity:1;paint-order:markers fill stroke"
       id="path31"
       cx="601.46484"
       cy="266.42023"
       rx="24.205843"
       ry="22.794741" />
  </g>
  <g
     inkscape:groupmode="layer"
     id="g76"
     inkscape:label="Layer 2 copy"
     transform="translate(-11.302387,-204.49034)">
    <ellipse
       style="display:inline;fill:#010000;fill-opacity:1;stroke:#000000;stroke-width:1.59351;stroke-opacity:1;paint-order:markers fill stroke"
       id="ellipse85"
       cx="817.03046"
       cy="247.13907"
       rx="24.205843"
       ry="22.794741" />
    <ellipse
       style="fill:#ffc233;fill-opacity:1;stroke:#000000;stroke-width:1.59351;stroke-opacity:1;paint-order:markers fill stroke"
       id="ellipse73"
       cx="816.15479"
       cy="245.71059"
       rx="24.205843"
       ry="22.794741" />
    <path
       style="fill:#2622ac;fill-opacity:0;stroke:#000000;stroke-width:4.35402;stroke-linecap:round;stroke-dasharray:none;stroke-opacity:1;paint-order:markers fill stroke"
       d="m 816.13788,206.66735 c 0.13827,12.52658 0.18966,12.41851 0.18966,12.41851"
       id="path74" />
    <path
       style="fill:#2622ac;fill-opacity:0;stroke:#000000;stroke-width:4.35402;stroke-linecap:round;stroke-dasharray:none;stroke-opacity:1;paint-order:markers fill stroke"
       d="m 793.34957,211.70188 c 6.44023,10.74512 6.43007,10.62589 6.43007,10.62589"
       id="path75" />
    <path
       style="fill:#2622ac;fill-opacity:0;stroke:#000000;stroke-width:4.35402;stroke-linecap:round;stroke-dasharray:none;stroke-opacity:1;paint-order:normal"
       d="m 837.47433,210.32124 c -6.44023,10.74512 -6.43007,10.62589 -6.43007,10.62589"
       id="path76" />
  </g>
</svg>
