<?xml version="1.0" encoding="UTF-8" standalone="no"?>
<!-- Created with Inkscape (http://www.inkscape.org/) -->

<svg
   width="290.53064mm"
   height="49.763515mm"
   viewBox="0 0 1098.0686 188.08258"
   version="1.1"
   id="svg1"
   sodipodi:docname="famtivitylogo(raw).svg"
   inkscape:version="1.3.2 (091e20e, 2023-11-25, custom)"
   xmlns:inkscape="http://www.inkscape.org/namespaces/inkscape"
   xmlns:sodipodi="http://sodipodi.sourceforge.net/DTD/sodipodi-0.dtd"
   xmlns="http://www.w3.org/2000/svg"
   xmlns:svg="http://www.w3.org/2000/svg">
  <sodipodi:namedview
     id="namedview1"
     pagecolor="#ffffff"
     bordercolor="#000000"
     borderopacity="0.25"
     inkscape:showpageshadow="2"
     inkscape:pageopacity="0.0"
     inkscape:pagecheckerboard="0"
     inkscape:deskcolor="#d1d1d1"
     inkscape:document-units="mm"
     inkscape:zoom="1.0243155"
     inkscape:cx="546.21844"
     inkscape:cy="303.6174"
     inkscape:window-width="1350"
     inkscape:window-height="1032"
     inkscape:window-x="407"
     inkscape:window-y="5"
     inkscape:window-maximized="0"
     inkscape:current-layer="layer1" />
  <defs
     id="defs1">
    <clipPath
       clipPathUnits="userSpaceOnUse"
       id="clipPath72">
      <path
         id="path73"
         style="fill:#ff0000;fill-opacity:1;fill-rule:nonzero;stroke:none"
         d="M 4.7500001,225.93946 V 388.66798 H 1112.0196 V 225.93946 H 837.98244 c 0.82431,0.43363 1.60915,0.94452 2.33789,1.52148 0.25003,0.19796 0.48866,0.41157 0.73242,0.61719 0.90584,0.80391 1.72487,1.70158 2.43164,2.68555 0.42609,0.59318 0.55935,0.83985 0.9336,1.45703 1.00457,1.72053 1.41708,3.66973 1.71484,5.61523 0.27266,1.65558 0.1885,3.32861 0.0195,4.98828 -0.16666,1.28937 -0.47205,2.55503 -0.81054,3.8086 -0.43576,1.526 -0.93924,3.03148 -1.43946,4.53711 -0.46683,1.40101 -1.01263,2.77241 -1.58984,4.13086 -0.41189,0.99157 -0.87472,1.95953 -1.3418,2.92578 -0.29336,0.64998 -0.63627,1.27413 -0.99804,1.88672 -0.0231,0.091 -0.0414,0.1831 -0.0684,0.27343 -0.0638,0.21343 -0.15252,0.41758 -0.22852,0.62696 -0.38776,0.91514 -0.91505,1.7873 -1.60156,2.51172 -0.19385,0.20455 -0.40373,0.39307 -0.60547,0.58984 -1.27397,1.09679 -2.82669,1.74668 -4.38281,2.33008 -1.52459,0.54873 -3.10308,0.91378 -4.68555,1.24805 -1.26253,0.25094 -2.53942,0.42949 -3.81641,0.58789 -1.03174,0.14076 -2.06848,0.22145 -3.10742,0.2832 -0.33866,0.071 -0.6769,0.14024 -1.01562,0.21094 -1.59282,0.34847 -3.21585,0.50103 -4.83789,0.63086 -1.65004,0.12622 -3.30502,0.18105 -4.95899,0.22265 -1.61458,0.0441 -3.2279,0.0513 -4.8418,-0.0137 -1.83401,-0.10837 -3.66215,-0.28949 -5.47656,-0.57812 -1.16574,-0.19964 -2.32049,-0.50728 -3.39648,-1.00586 -0.20022,-0.0928 -0.39459,-0.19788 -0.5918,-0.29688 -1.14852,-0.59985 -2.02472,-1.53317 -2.79883,-2.54883 -0.66703,-0.94841 -1.12571,-2.00992 -1.55078,-3.08203 -0.17923,-0.4756 -0.3402,-0.95861 -0.5,-1.4414 -0.1009,-0.24766 -0.21279,-0.49092 -0.30859,-0.74024 -0.44206,-1.14582 -0.71114,-2.3455 -0.95899,-3.54492 -0.0333,-0.16411 -0.057,-0.32959 -0.0879,-0.49414 -0.10512,-0.4288 -0.21264,-0.85616 -0.30859,-1.28711 -0.27455,-1.37129 -0.46275,-2.75858 -0.66016,-4.14258 -0.24243,-1.66739 -0.37043,-3.34882 -0.50586,-5.02734 -0.0478,-0.56696 -0.0862,-1.13352 -0.12304,-1.70117 -0.12262,-0.98923 -0.24736,-1.97722 -0.36719,-2.9668 -0.13006,-1.04105 -0.25973,-2.08218 -0.375,-3.125 -0.10418,-0.93924 -0.15244,-1.88345 -0.14844,-2.82813 0.0384,-0.99943 0.22119,-1.996 0.72461,-2.87695 0.45945,-0.80401 0.67951,-0.92661 1.32813,-1.54102 0.30806,-0.23881 0.63762,-0.44008 0.9746,-0.62695 -1.25215,-1.25352 -1.62392,-2.65668 -1.32812,-3.82031 H 622.68361 c 0.0186,0.0604 0.0426,0.11902 0.0606,0.17969 0.34432,0.87512 0.65605,1.75887 0.98242,2.64062 0.37222,1.21551 0.72613,2.4365 0.93359,3.69336 0.18659,1.07265 0.34063,2.14645 0.47656,3.22656 0.12588,0.98348 0.22834,1.97054 0.30664,2.95899 0.0694,0.68656 0.26055,1.35705 0.33985,2.04297 0.0966,0.65242 0.16317,1.30959 0.3125,1.95312 0.28544,1.32778 0.49287,2.66703 0.62109,4.01953 0.13523,1.48948 0.32071,2.97949 0.25781,4.47852 -0.0211,1.22984 -0.049,2.46225 -0.1875,3.68555 0.65497,0.20496 1.32633,0.35668 1.96289,0.61132 0.96514,0.35933 1.8497,0.88622 2.73047,1.41211 0.48365,0.31598 0.97823,0.61203 1.47852,0.89844 0.81881,0.5159 1.44078,0.82401 2.50781,1.61133 0.23833,0.20132 0.47847,0.40219 0.7168,0.60351 8.78291,7.41889 -8.08576,5.26265 -12.19922,7.39649 0.2305,0.71705 0.32496,1.46094 0.27734,2.20508 0.41228,0.53653 0.78826,1.09863 1.15039,1.66992 0.21056,0.16657 0.17345,0.24669 0.41993,0.42578 0.0312,0.0227 0.0625,0.0457 0.0937,0.0684 -0.119,-0.0608 -0.24055,-0.12099 -0.3086,-0.1582 0.14953,0.24367 0.30656,0.48242 0.44922,0.73047 0.72403,1.23794 1.3241,2.59405 1.5918,4.01171 0.095,0.50304 0.14284,1.01466 0.21484,1.52149 0.1436,2.44449 -0.40405,4.46576 -1.71484,6.53515 -0.4974,0.78526 -0.97919,1.22669 -1.61133,1.88672 -0.86986,0.85616 -1.91011,1.50506 -2.94141,2.14063 -0.8247,0.54741 -1.72687,0.96071 -2.63476,1.34765 -1.18053,0.51806 -2.43319,0.80264 -3.70313,0.98829 -0.99356,0.12513 -1.9941,0.15268 -2.99414,0.17578 -1.35784,0.0201 -2.69052,-0.18652 -4,-0.53321 -0.26113,-0.0722 -0.52229,-0.14696 -0.78515,-0.21289 -0.9614,0.25639 -1.94247,0.42147 -2.93165,0.53907 -1.18138,0.16134 -2.36705,0.26705 -3.55664,0.34375 -0.94389,0.1023 -1.89082,0.1872 -2.83789,0.2539 -1.13021,0.0756 -2.26227,0.0895 -3.39453,0.10352 -1.08592,0.0123 -2.17184,0.0146 -3.25781,0.0176 -1.55267,0.0157 -3.07739,-0.24951 -4.57422,-0.63868 -1.74898,-0.46801 -3.30139,-1.35607 -4.72461,-2.45507 -1.33387,-1.03389 -2.39598,-2.32663 -3.30273,-3.74024 -0.6117,-1.00476 -1.17228,-2.03799 -1.66602,-3.10547 -0.44419,-1.01224 -0.79361,-2.0576 -1.0625,-3.1289 -0.21584,-0.75861 -0.40948,-1.55697 -0.45898,-2.35157 -0.0304,-0.48848 -9.6e-4,-0.97932 -0.002,-1.46875 0.16245,-0.75212 0.22216,-1.53316 0.48633,-2.25586 0.0163,-0.0444 0.0377,-0.0867 0.0547,-0.13085 -0.50675,0.0654 -1.01351,0.13029 -1.52149,0.1875 -15.04184,1.69391 -16.67139,-12.90461 -2.35156,-15.4043 -0.29189,-0.76614 -0.52272,-1.54759 -0.71484,-2.34375 -0.15668,-0.69862 -0.30925,-1.3994 -0.40625,-2.10938 -0.10535,-0.55892 -0.26834,-1.10538 -0.39258,-1.66015 -0.20891,-0.79948 -0.46019,-1.58609 -0.66016,-2.38868 -0.1731,-0.74249 -0.31382,-1.49097 -0.52343,-2.2246 -0.18803,-0.78818 -0.4374,-1.56011 -0.61133,-2.35157 -0.10849,-0.5505 -0.21785,-1.10102 -0.31055,-1.65429 -0.20759,-0.93776 -0.43381,-1.87236 -0.55859,-2.82618 -0.20468,-1.2654 -0.42892,-2.53324 -0.41992,-3.82031 0.0178,-0.36418 0.0247,-0.73021 0.0527,-1.09375 0.13891,-1.80348 0.79782,-3.52367 1.8457,-4.99219 0.37448,-0.41125 0.71007,-0.8618 1.12305,-1.23437 0.28268,-0.25503 0.58268,-0.48165 0.89063,-0.69336 -0.32752,-0.53792 -0.70998,-1.04144 -1.02344,-1.58789 z M 618.15822,280.29102 c -0.0885,0.0379 -0.16992,0.0893 -0.25391,0.13672 0.0126,-0.006 0.0224,-0.008 0.0352,-0.0137 0.0759,-0.0349 0.29555,-0.15595 0.21875,-0.12305 z m -11.57617,9.71094 c -0.21533,-0.006 -0.23623,0.0144 0.30078,0.0273 -0.0938,-0.0155 -0.20758,-0.0247 -0.30078,-0.0273 z" />
    </clipPath>
  </defs>
  <g
     inkscape:label="Layer 1"
     inkscape:groupmode="layer"
     id="layer1"
     style="display:inline"
     transform="translate(-11.302387,-204.49034)">
    <text
       xml:space="preserve"
       style="font-size:213.333px;font-family:'Ask Why';-inkscape-font-specification:'Ask Why';text-align:center;letter-spacing:7px;word-spacing:0px;text-anchor:middle;display:inline;fill:#000000;fill-opacity:1;stroke:#000000;stroke-width:1.7915;stroke-opacity:1;paint-order:markers fill stroke"
       x="553.54041"
       y="384.64713"
       id="text85"
       clip-path="url(#clipPath72)"
       transform="translate(3.905047,3.9050504)"><tspan
         sodipodi:role="line"
         id="tspan85"
         x="557.04041"
         y="384.64713"><tspan
           style="fill:#000000;fill-opacity:1;stroke:#000000;stroke-opacity:1"
           id="tspan76">F</tspan><tspan
           style="fill:#000000;fill-opacity:1;stroke:#000000;stroke-opacity:1"
           id="tspan77">a</tspan><tspan
           style="fill:#000000;fill-opacity:1;stroke:#000000;stroke-opacity:1"
           id="tspan78">M</tspan><tspan
           style="fill:#000000;fill-opacity:1;stroke:#000000;stroke-opacity:1"
           id="tspan79">T</tspan><tspan
           style="font-size:173.333px;fill:#000000;fill-opacity:1;stroke:#000000;stroke-opacity:1"
           id="tspan80">i</tspan><tspan
           style="fill:#000000;fill-opacity:1;stroke:#000000;stroke-opacity:1"
           id="tspan81">V</tspan><tspan
           style="fill:#000000;fill-opacity:1;stroke:#000000;stroke-opacity:1"
           id="tspan82">i</tspan><tspan
           style="fill:#000000;fill-opacity:1;stroke:#000000;stroke-opacity:1"
           id="tspan83">T</tspan><tspan
           style="fill:#000000;fill-opacity:1;stroke:#000000;stroke-opacity:1"
           id="tspan84">Y</tspan></tspan></text>
    <text
       xml:space="preserve"
       style="font-size:213.333px;font-family:'Ask Why';-inkscape-font-specification:'Ask Why';text-align:center;letter-spacing:7px;word-spacing:0px;text-anchor:middle;display:inline;fill:#2622ac;stroke:#000000;stroke-width:1.7915;stroke-opacity:1;paint-order:markers fill stroke"
       x="553.54041"
       y="384.64713"
       id="text31"
       clip-path="url(#clipPath72)"
       transform="translate(0,-0.97626193)"><tspan
         sodipodi:role="line"
         id="tspan31"
         x="557.04041"
         y="384.64713"><tspan
           style="fill:#f27173;fill-opacity:1;stroke:#000000;stroke-opacity:1"
           id="tspan22">F</tspan><tspan
           style="fill:#bb8abf;fill-opacity:1;stroke:#000000;stroke-opacity:1"
           id="tspan23">a</tspan><tspan
           style="fill:#50c6e0;fill-opacity:1;stroke:#000000;stroke-opacity:1"
           id="tspan24">M</tspan><tspan
           style="fill:#f27173;fill-opacity:1;stroke:#000000;stroke-opacity:1"
           id="tspan25">T</tspan><tspan
           style="font-size:173.333px;fill:#ffc233;fill-opacity:1;stroke:#000000;stroke-opacity:1"
           id="tspan26">i</tspan><tspan
           style="fill:#bb8abf;fill-opacity:1;stroke:#000000;stroke-opacity:1"
           id="tspan27">V</tspan><tspan
           style="fill:#ffc233;fill-opacity:1;stroke:#000000;stroke-opacity:1"
           id="tspan28">i</tspan><tspan
           style="fill:#f27173;fill-opacity:1;stroke:#000000;stroke-opacity:1"
           id="tspan29">T</tspan><tspan
           style="fill:#50c6e0;fill-opacity:1;stroke:#000000;stroke-opacity:1"
           id="tspan30">Y</tspan></tspan></text>
  </g>
  <g
     inkscape:groupmode="layer"
     id="layer4"
     inkscape:label="Layer 2"
     style="display:inline"
     transform="translate(-11.302387,-204.49034)">
    <path
       style="fill:#2622ac;fill-opacity:0;stroke:#000000;stroke-width:4.35402;stroke-linecap:round;stroke-dasharray:none;stroke-opacity:1;paint-order:markers fill stroke"
       d="m 601.44795,227.37699 c 0.13827,12.52658 0.18966,12.41851 0.18966,12.41851"
       id="path56" />
    <path
       style="fill:#2622ac;fill-opacity:0;stroke:#000000;stroke-width:4.35402;stroke-linecap:round;stroke-dasharray:none;stroke-opacity:1;paint-order:markers fill stroke"
       d="m 578.65964,232.41152 c 6.44023,10.74512 6.43007,10.62589 6.43007,10.62589"
       id="path68" />
    <path
       style="display:inline;fill:#2622ac;fill-opacity:0;stroke:#000000;stroke-width:4.35402;stroke-linecap:round;stroke-dasharray:none;stroke-opacity:1;paint-order:normal"
       d="m 622.7844,231.03088 c -6.44023,10.74512 -6.43007,10.62589 -6.43007,10.62589"
       id="path69" />
    <ellipse
       style="display:inline;fill:#010000;fill-opacity:1;stroke:#000000;stroke-width:1.59351;stroke-opacity:1;paint-order:markers fill stroke"
       id="circle_shadow"
       cx="602.74097"
       cy="267.64056"
       rx="24.205843"
       ry="22.794741" />
    <ellipse
       style="display:inline;fill:#ffc233;fill-opacity:1;stroke:#000000;stroke-width:1.59351;stroke-opacity:1;paint-order:markers fill stroke"
       id="path31"
       cx="601.46484"
       cy="266.42023"
       rx="24.205843"
       ry="22.794741" />
  </g>
  <g
     inkscape:groupmode="layer"
     id="g76"
     inkscape:label="Layer 2 copy"
     transform="translate(-11.302387,-204.49034)">
    <ellipse
       style="display:inline;fill:#010000;fill-opacity:1;stroke:#000000;stroke-width:1.59351;stroke-opacity:1;paint-order:markers fill stroke"
       id="ellipse85"
       cx="817.03046"
       cy="247.13907"
       rx="24.205843"
       ry="22.794741" />
    <ellipse
       style="fill:#ffc233;fill-opacity:1;stroke:#000000;stroke-width:1.59351;stroke-opacity:1;paint-order:markers fill stroke"
       id="ellipse73"
       cx="816.15479"
       cy="245.71059"
       rx="24.205843"
       ry="22.794741" />
    <path
       style="fill:#2622ac;fill-opacity:0;stroke:#000000;stroke-width:4.35402;stroke-linecap:round;stroke-dasharray:none;stroke-opacity:1;paint-order:markers fill stroke"
       d="m 816.13788,206.66735 c 0.13827,12.52658 0.18966,12.41851 0.18966,12.41851"
       id="path74" />
    <path
       style="fill:#2622ac;fill-opacity:0;stroke:#000000;stroke-width:4.35402;stroke-linecap:round;stroke-dasharray:none;stroke-opacity:1;paint-order:markers fill stroke"
       d="m 793.34957,211.70188 c 6.44023,10.74512 6.43007,10.62589 6.43007,10.62589"
       id="path75" />
    <path
       style="fill:#2622ac;fill-opacity:0;stroke:#000000;stroke-width:4.35402;stroke-linecap:round;stroke-dasharray:none;stroke-opacity:1;paint-order:normal"
       d="m 837.47433,210.32124 c -6.44023,10.74512 -6.43007,10.62589 -6.43007,10.62589"
       id="path76" />
  </g>
</svg>
