<?xml version="1.0" encoding="UTF-8" standalone="no"?>
<!-- Uploaded to: SVG Repo, www.svgrepo.com, Transformed by: SVG Repo Mixer Tools -->

<svg
   width="256px"
   height="256px"
   viewBox="0 0 32 32"
   enable-background="new 0 0 32 32"
   id="Stock_cut"
   version="1.1"
   xml:space="preserve"
   fill="#000000"
   sodipodi:docname="user-account-red.svg"
   inkscape:version="1.3.2 (091e20e, 2023-11-25, custom)"
   xmlns:inkscape="http://www.inkscape.org/namespaces/inkscape"
   xmlns:sodipodi="http://sodipodi.sourceforge.net/DTD/sodipodi-0.dtd"
   xmlns:xlink="http://www.w3.org/1999/xlink"
   xmlns="http://www.w3.org/2000/svg"
   xmlns:svg="http://www.w3.org/2000/svg"><defs
   id="defs2"><linearGradient
     id="swatch5"
     inkscape:swatch="solid"><stop
       style="stop-color:#2622ac;stop-opacity:1;"
       offset="0"
       id="stop5" /></linearGradient><linearGradient
     id="swatch4"
     inkscape:swatch="solid"><stop
       style="stop-color:#000000;stop-opacity:1;"
       offset="0"
       id="stop4" /></linearGradient><linearGradient
     id="swatch3"
     inkscape:swatch="solid"><stop
       style="stop-color:#000000;stop-opacity:1;"
       offset="0"
       id="stop3" /></linearGradient><linearGradient
     id="swatch2"
     inkscape:swatch="solid"><stop
       style="stop-color:#50c6e0;stop-opacity:1;"
       offset="0"
       id="stop2" /></linearGradient><linearGradient
     inkscape:collect="always"
     xlink:href="#swatch2"
     id="linearGradient2"
     x1="87.870795"
     y1="88.018324"
     x2="168.13355"
     y2="88.018324"
     gradientUnits="userSpaceOnUse" /><linearGradient
     inkscape:collect="always"
     xlink:href="#swatch2"
     id="linearGradient3"
     x1="87.870445"
     y1="88.018326"
     x2="168.1339"
     y2="88.018326"
     gradientUnits="userSpaceOnUse" /><linearGradient
     inkscape:collect="always"
     xlink:href="#swatch2"
     id="linearGradient4"
     x1="56.100773"
     y1="192.11789"
     x2="199.89911"
     y2="192.11789"
     gradientUnits="userSpaceOnUse" /><linearGradient
     inkscape:collect="always"
     xlink:href="#swatch2"
     id="linearGradient5"
     x1="56.100773"
     y1="192.11789"
     x2="199.89911"
     y2="192.11789"
     gradientUnits="userSpaceOnUse" /></defs><sodipodi:namedview
   id="namedview2"
   pagecolor="#ffffff"
   bordercolor="#000000"
   borderopacity="0.25"
   inkscape:showpageshadow="2"
   inkscape:pageopacity="0.0"
   inkscape:pagecheckerboard="0"
   inkscape:deskcolor="#d1d1d1"
   showgrid="false"
   inkscape:zoom="3.1757812"
   inkscape:cx="128"
   inkscape:cy="127.84256"
   inkscape:window-width="1350"
   inkscape:window-height="1032"
   inkscape:window-x="130"
   inkscape:window-y="0"
   inkscape:window-maximized="0"
   inkscape:current-layer="Stock_cut" />

<g
   id="SVGRepo_bgCarrier"
   stroke-width="0" />

<g
   id="SVGRepo_tracerCarrier"
   stroke-linecap="round"
   stroke-linejoin="round" />

<g
   id="SVGRepo_iconCarrier"> <desc
   id="desc1" /> <g
   id="g2"> <circle
   cx="16"
   cy="16"
   fill="none"
   r="15"
   stroke="#000000"
   stroke-linejoin="round"
   stroke-miterlimit="10"
   stroke-width="2"
   id="circle1"
   style="stroke-width:1.99984252;stroke-dasharray:none" /> <path
   d="M26,27L26,27 c0-5.523-4.477-10-10-10h0c-5.523,0-10,4.477-10,10v0"
   fill="none"
   stroke="#000000"
   stroke-linejoin="round"
   stroke-miterlimit="10"
   stroke-width="2"
   id="path1" /> <circle
   cx="16"
   cy="11"
   fill="none"
   r="6"
   stroke="#000000"
   stroke-linejoin="round"
   stroke-miterlimit="10"
   stroke-width="2"
   id="circle2"
   style="stroke-width:1.99984253;stroke-dasharray:none" /> </g> </g>

<path
   style="fill:url(#linearGradient2);fill-rule:nonzero;stroke:url(#linearGradient3);stroke-width:1.79149606;fill-opacity:1;stroke-dasharray:none;paint-order:stroke markers fill"
   d="M 122.85993,127.52684 C 98.261164,124.05595 82.591947,99.434632 90.079187,76.017876 c 2.013659,-6.297831 5.057127,-11.252173 9.866901,-16.061948 5.796262,-5.796265 12.317522,-9.337522 20.339272,-11.044895 3.67907,-0.783064 11.71886,-0.791541 15.33219,-0.01617 8.16427,1.751953 14.623,5.2477 20.43636,11.06106 4.80978,4.809775 7.85324,9.764117 9.8669,16.061948 4.43089,13.857826 0.93369,28.771939 -9.25797,39.481489 -5.42329,5.69887 -12.43743,9.64538 -20.31844,11.43216 -3.09476,0.70164 -10.43445,1.02568 -13.48447,0.59532 z"
   id="path2"
   transform="scale(0.125)" /><path
   style="fill:url(#linearGradient5);fill-opacity:1;fill-rule:nonzero;stroke:url(#linearGradient4);stroke-width:1.71968502;stroke-dasharray:none;paint-order:markers fill stroke"
   d="m 122.80443,239.72946 c -13.08737,-0.7179 -25.941414,-3.61119 -37.78598,-8.50517 -8.774733,-3.62558 -20.067188,-10.32773 -26.789313,-15.89965 l -2.022495,-1.67642 0.07464,-1.57442 c 0.805261,-16.98509 8.253147,-33.80137 20.482472,-46.24655 11.150526,-11.34733 24.513996,-18.2308 40.530216,-20.87694 2.63963,-0.4361 5.18682,-0.57226 10.70603,-0.57226 8.00445,0 11.20023,0.37543 17.94834,2.10847 23.4535,6.02332 42.64188,23.99604 50.18885,47.00917 2.0378,6.21391 3.32241,12.8289 3.57724,18.42067 l 0.0789,1.73186 -1.93594,1.60548 c -1.06477,0.88301 -3.54447,2.74115 -5.51046,4.1292 -12.51522,8.83617 -26.70146,14.97031 -41.99026,18.15663 -8.82944,1.84013 -19.07849,2.65476 -27.55227,2.18993 z"
   id="path3"
   transform="scale(0.125)" /></svg>
